<svg width="93" height="24" viewBox="0 0 93 24" fill="none" xmlns="http://www.w3.org/2000/svg">
<path d="M53.3451 10.0334L46.8646 14.6376L49.3692 22.1693L49.9232 23.8346L49.9777 24L49.7456 23.8346L48.3848 22.8684L43.5462 19.4315L41.8315 18.2132L35.2778 22.8684L34.1171 23.6926L34.5607 22.3581L34.9883 21.0738C36.0738 19.4793 37.4633 17.8543 39.1094 16.2799C40.6361 14.8156 42.3851 13.3954 44.3192 12.0787C44.6589 11.8472 45.0005 11.6219 45.3422 11.403C42.0829 11.8571 39.2268 12.9807 37.163 14.5335C37.0789 14.5954 36.9981 14.6577 36.9182 14.7228L28.8801 9.01289H38.9989L41.9964 0L44.994 9.01289H54.782L53.3451 10.0334Z" fill="url(#paint0_linear_39_1766)"/>
<path d="M16.0602 13.171C15.6189 12.3899 15.04 11.7728 14.3229 11.3179C13.6059 10.8638 12.6214 10.4051 11.3682 9.94121C9.99138 9.41032 9.08776 8.98205 8.65638 8.65593C8.22361 8.32887 8.00839 7.89169 8.00839 7.34207C8.00839 6.86928 8.19118 6.4546 8.5563 6.10036C8.92188 5.74472 9.41763 5.5676 10.0435 5.5676C11.3828 5.5676 12.3033 6.36745 12.8061 7.9676L16.3379 6.6186C15.5024 3.60805 13.3949 2.10349 10.0163 2.10349C8.1644 2.10349 6.67716 2.65968 5.55221 3.77159C4.42726 4.88443 3.86432 6.31122 3.86432 8.05241C3.86432 9.07483 4.10115 9.98572 4.57622 10.7851C5.05129 11.5859 5.65371 12.2011 6.38441 12.6317C7.11511 13.0619 8.22643 13.5426 9.71649 14.0726C10.8739 14.4891 11.6149 14.8841 11.9377 15.258C12.2605 15.6324 12.4217 16.0555 12.4217 16.5283C12.4217 17.1539 12.1915 17.658 11.7314 18.0409C11.2714 18.4241 10.6709 18.6158 9.92982 18.6158C8.30631 18.6158 7.26735 17.6407 6.81202 15.691L3.08099 16.7556C4.05886 20.3059 6.30828 22.0804 9.8302 22.0804C11.9278 22.0804 13.6007 21.5003 14.8492 20.3411C16.0978 19.1809 16.7218 17.6979 16.7218 15.8897C16.7218 14.8579 16.5014 13.9521 16.0602 13.171ZM17.819 2.10302V5.73769H21.6915V22.094H25.9638V5.73769H29.9359V2.10302H17.819ZM89.919 10.3751V13.6251H83.9935V19.5337H80.7342V13.6251H74.8088V10.3751H80.7342V4.46647H83.9935V10.3751H89.919ZM65.6241 14.2427L64.9258 13.2943C65.164 13.2685 65.3971 13.2273 65.6241 13.172C66.6569 12.9246 67.5807 12.3951 68.3063 11.6712C69.3335 10.6469 69.9692 9.23086 69.9692 7.66678C69.9692 4.99689 68.1164 2.75948 65.6236 2.16159C65.196 2.05804 64.7496 2.00415 64.2905 2.00415H56.2415V21.9956H60.3893V13.6387L67.0281 21.9956H71.8178L65.6241 14.2427ZM60.3898 10.2767V5.46686H63.416C64.4578 5.46686 65.3379 6.15519 65.6241 7.10075C65.6884 7.31161 65.7227 7.53605 65.7227 7.76752V7.97651C65.7227 8.20798 65.688 8.43242 65.6241 8.64328C65.3374 9.58884 64.4578 10.2772 63.416 10.2772H60.3898V10.2767Z" fill="black"/>
<defs>
<linearGradient id="paint0_linear_39_1766" x1="53.8803" y1="7.4557" x2="32.0385" y2="20.102" gradientUnits="userSpaceOnUse">
<stop offset="0.004" stop-color="#F7931E"/>
<stop offset="1" stop-color="#C1272D"/>
</linearGradient>
</defs>
</svg>
