<svg width="178" height="24" viewBox="0 0 178 24" fill="none" xmlns="http://www.w3.org/2000/svg">
<g clip-path="url(#clip0_39_1769)">
<path d="M87.4315 16.6447C86.8748 16.6447 86.4996 16.528 86.2502 16.2765C86.0037 16.031 85.89 15.6667 85.89 15.1288V8.31957H89.421V5.50128H85.89V1.13013L82.4777 1.97741V15.4272C82.4777 18.2225 83.9893 19.7604 86.7311 19.7604C87.7079 19.7604 88.6847 19.6277 89.6385 19.3742V16.507C88.6827 16.6248 87.9843 16.6447 87.4315 16.6447ZM67.5754 16.6567V19.2315C67.1094 19.456 66.7153 19.6287 65.9381 19.6287C64.8485 19.6287 64.0244 19.0419 63.734 18.0579L63.6702 17.8433L63.5355 18.0229C62.9029 18.8632 61.5699 19.7594 59.7261 19.7594C58.2534 19.7594 57.0182 19.3033 56.1532 18.4361C55.3609 17.6447 54.907 16.522 54.907 15.3543C54.907 12.8863 56.677 11.1578 59.4178 10.9492L63.1104 10.6678L63.2142 10.6598V9.9373C63.2142 9.16586 63.0665 8.67286 62.7323 8.33853C62.3871 7.99523 61.8423 7.82757 61.0641 7.82757C59.778 7.82757 58.9987 8.35749 58.7932 9.35348L55.6573 8.89341C56.1462 6.52121 58.1038 5.15797 61.0641 5.15797C63.6452 5.15797 65.3703 6.14797 66.0558 8.02217C66.392 8.92335 66.4389 9.88141 66.4389 10.7816V15.9132C66.4389 16.2615 66.5058 16.483 66.6534 16.6118C66.7652 16.7096 66.9208 16.7455 67.1144 16.7186C67.1154 16.7196 67.4028 16.6806 67.5754 16.6567ZM63.0925 13.2895L59.9596 13.54C59.0486 13.6139 58.1297 14.1817 58.1297 15.2745C58.1297 15.7126 58.2873 16.1028 58.5847 16.3992C58.9179 16.7325 59.4198 16.9331 59.9276 16.9331C60.9543 16.9331 61.8044 16.6238 62.3861 16.0419C62.9279 15.5 63.2142 14.7376 63.2142 13.8394V13.2785L63.0925 13.2895ZM50.0729 16.6447C49.5181 16.6447 49.143 16.528 48.8926 16.2765C48.6461 16.031 48.5314 15.6667 48.5314 15.1288V8.31957H52.0614V5.50128H48.5314V1.13013L45.1191 1.97741V15.4272C45.1201 18.2225 46.6307 19.7604 49.3725 19.7604C50.3493 19.7604 51.3261 19.6277 52.2789 19.3742V16.507C51.3241 16.6248 50.6256 16.6447 50.0729 16.6447ZM38.4811 11.1518L35.7772 10.7516C34.8393 10.6129 34.3833 10.1828 34.3833 9.43731C34.3833 8.42236 35.1676 7.83954 36.5345 7.83954C37.9044 7.83954 38.512 8.62395 38.6427 9.40038L41.59 8.75868C41.0523 6.5781 39.0937 5.17095 36.5524 5.17095C34.971 5.17095 33.5243 5.71085 32.5824 6.65095C31.7862 7.44734 31.3651 8.51318 31.3651 9.73471C31.3651 11.9891 33.1761 13.2785 34.4621 13.4741L37.8166 13.9651C38.5589 14.0739 39.0199 14.6068 39.0199 15.3573C39.0199 15.7914 38.8822 16.1467 38.6098 16.4192C38.1997 16.8303 37.4963 17.0389 36.5185 17.0389C35.0997 17.0389 34.2267 16.3952 34.0331 15.2336L31.1396 15.9182C31.5817 17.7155 33.2269 19.7604 36.4946 19.7604C40.5464 19.7604 41.9891 17.3353 41.9891 15.0649C41.9901 13.035 40.5803 11.4622 38.4811 11.1518Z" fill="black"/>
<path d="M106.366 12.4203C106.366 15.1857 105.528 17.2744 103.873 18.6337C102.958 19.3822 101.812 19.7604 100.469 19.7604C99.0823 19.7604 97.8022 19.3353 97.0459 18.6217L96.8563 18.4431V23.8811H93.4769V5.50126H96.3983L96.5729 6.70483L96.6108 6.9653L96.7725 6.75872C97.5737 5.74178 98.9306 5.15796 100.495 5.15796C101.756 5.15796 102.925 5.56613 103.874 6.33857C105.505 7.67885 106.366 9.7826 106.366 12.4203ZM102.056 9.09299C101.491 8.37045 100.742 8.0042 99.8276 8.0042C97.7792 8.0042 96.6957 9.54907 96.6957 12.4731C96.6957 14.1777 97.0688 15.4122 97.8032 16.1477C98.313 16.6567 98.9925 16.9152 99.8266 16.9152C100.741 16.9152 101.49 16.5499 102.054 15.8274C102.645 15.0569 102.933 13.9591 102.933 12.4731C102.934 10.9921 102.638 9.85545 102.056 9.09299ZM154.057 12.4203C154.057 15.1857 153.219 17.2744 151.565 18.6337C150.648 19.3822 149.503 19.7604 148.16 19.7604C146.773 19.7604 145.492 19.3353 144.736 18.6217L144.548 18.4431V23.8811H141.167V5.50126H144.09L144.262 6.70483L144.3 6.9653L144.463 6.75872C145.264 5.74178 146.62 5.15796 148.185 5.15796C149.447 5.15796 150.616 5.56613 151.565 6.33857C153.195 7.67885 154.057 9.7826 154.057 12.4203ZM149.745 9.09299C149.181 8.37045 148.431 8.0042 147.517 8.0042C145.469 8.0042 144.386 9.54907 144.386 12.4731C144.386 14.1777 144.759 15.4122 145.492 16.1477C146.002 16.6567 146.682 16.9152 147.516 16.9152C148.431 16.9152 149.18 16.5499 149.744 15.8274C150.336 15.0569 150.623 13.9591 150.623 12.4731C150.624 10.9921 150.329 9.85545 149.745 9.09299ZM134.398 12.4552C134.398 14.0939 134.085 15.1996 133.414 15.9391C132.897 16.485 132.117 16.8104 131.321 16.8104C130.931 16.8143 130.544 16.739 130.183 16.5889C129.823 16.4388 129.497 16.2171 129.224 15.9371C128.556 15.1976 128.244 14.0909 128.244 12.4552C128.244 10.8255 128.556 9.72272 129.228 8.98122C129.5 8.70159 129.825 8.48009 130.185 8.33015C130.545 8.18022 130.932 8.10497 131.321 8.10898C132.115 8.10898 132.897 8.43532 133.416 8.98421C134.085 9.72072 134.398 10.8245 134.398 12.4552ZM136.196 7.33056C135.337 6.28069 133.605 5.15896 131.321 5.15896C129.038 5.15896 127.308 6.28069 126.449 7.32856C125.306 8.76665 124.816 10.3005 124.816 12.4552C124.816 14.6168 125.304 16.1537 126.447 17.5908C127.306 18.6397 129.039 19.7604 131.321 19.7604C133.604 19.7604 135.335 18.6397 136.194 17.5928C137.338 16.1527 137.828 14.6168 137.828 12.4562C137.828 10.3015 137.339 8.76865 136.196 7.33056Z" fill="#DB812E"/>
<path d="M78.2862 5.31348C76.5751 5.31348 75.2072 6.00807 74.5337 7.22062L74.3701 7.51502L74.3232 7.18169L74.0887 5.5011H71.2222V19.4209H74.6245V12.4091C74.6245 9.99999 75.9864 8.50302 78.1795 8.50302C78.4838 8.50302 78.9527 8.54793 79.3458 8.63974V5.3993C78.9954 5.34296 78.6411 5.31426 78.2862 5.31348Z" fill="black"/>
<path d="M162.318 16.6166C161.821 16.6166 161.493 16.5198 161.289 16.3152C161.038 16.0657 161.003 15.6795 161.003 15.3013V0.11899H157.602V15.8641C157.602 17.0826 157.921 18.0207 158.554 18.6525C159.195 19.2942 160.156 19.6195 161.411 19.6195C162.087 19.6195 162.691 19.4858 162.898 19.4339V16.5876C162.727 16.5976 162.426 16.6166 162.318 16.6166ZM121.985 12.1706C121.985 12.5059 121.961 13.2634 121.952 13.5388H112.653V13.6526C112.66 14.6635 113.027 15.5897 113.661 16.1964C114.261 16.7613 114.948 17.0487 115.707 17.0487C116.665 17.0487 117.248 16.8581 117.722 16.3861C117.97 16.1386 118.146 15.8461 118.276 15.5108L121.135 16.7314C120.947 17.1131 120.717 17.4732 120.451 17.8052C119.383 19.0666 117.717 19.7602 115.76 19.7602C114.015 19.7602 112.578 19.1994 111.363 18.0447C109.982 16.7174 109.221 14.7484 109.221 12.5019C109.221 10.2295 109.936 8.25152 111.232 6.9302C112.359 5.77055 113.898 5.15779 115.682 5.15779C117.868 5.15779 119.676 6.07194 120.774 7.73258C121.61 8.99203 121.985 10.3603 121.985 12.1706ZM118.585 10.9471C118.535 9.991 118.254 9.22456 117.75 8.66868C117.255 8.14674 116.53 7.87229 115.652 7.87229C114.69 7.87229 113.848 8.26051 113.342 8.93514C112.9 9.498 112.683 10.1197 112.639 10.9471L112.633 11.0658H118.59L118.585 10.9471ZM177.889 12.1706C177.889 12.5059 177.865 13.2634 177.856 13.5388H168.557L168.558 13.6526C168.564 14.6635 168.932 15.5897 169.566 16.1964C170.167 16.7613 170.854 17.0487 171.612 17.0487C172.571 17.0487 173.155 16.8581 173.628 16.3861C173.873 16.137 174.061 15.8386 174.182 15.5108L177.041 16.7314C176.852 17.1129 176.623 17.4729 176.357 17.8052C175.289 19.0666 173.623 19.7602 171.665 19.7602C169.92 19.7602 168.484 19.1994 167.269 18.0447C165.887 16.7174 165.126 14.7484 165.126 12.5019C165.126 10.2295 165.84 8.25152 167.138 6.9302C168.265 5.77055 169.804 5.15779 171.587 5.15779C173.773 5.15779 175.58 6.07194 176.678 7.73258C177.515 8.99203 177.889 10.3603 177.889 12.1706ZM174.49 10.9471C174.44 9.991 174.159 9.22456 173.655 8.66868C173.161 8.14674 172.434 7.87229 171.556 7.87229C170.595 7.87229 169.753 8.26051 169.247 8.93514C168.806 9.498 168.587 10.1197 168.543 10.9471L168.537 11.0658H174.494L174.49 10.9471ZM23.8152 11.97C23.8152 18.5377 18.4733 23.8799 11.9071 23.8799C10.3428 23.8844 8.79317 23.5783 7.348 22.9794C5.90283 22.3805 4.59086 21.5007 3.4881 20.3909C2.37884 19.2878 1.49938 17.9755 0.900634 16.53C0.301893 15.0845 -0.0042327 13.5346 -1.8102e-05 11.97C-1.8102e-05 8.78844 1.23819 5.7965 3.4881 3.54805C4.59114 2.43875 5.90319 1.55929 7.34831 0.960588C8.79343 0.361883 10.3429 0.0558178 11.9071 0.060109C13.4713 0.0555421 15.0209 0.361481 16.466 0.960202C17.9112 1.55892 19.2232 2.43852 20.3261 3.54805C21.4356 4.65126 22.3154 5.9637 22.9143 7.40935C23.5132 8.855 23.8194 10.4051 23.8152 11.97ZM20.2552 8.02598C18.8724 7.02102 17.8736 7.75952 16.9916 8.4112C16.1306 9.04991 15.3852 9.60079 14.3286 8.83335C13.273 8.0659 13.5663 7.18668 13.9076 6.16974C14.2558 5.12985 14.6489 3.95223 13.265 2.94726C12.8721 2.65476 12.3954 2.49678 11.9056 2.49678C11.4158 2.49678 10.9391 2.65476 10.5462 2.94726C9.86969 3.44027 9.52048 4.17478 9.53844 5.06997C9.57336 6.71863 10.7866 8.49703 11.941 9.26348C13.0435 9.99699 13.6621 10.8952 13.6811 11.7934C13.6941 12.4311 13.3887 13.0099 12.82 13.4231C12.2513 13.8362 11.6068 13.947 11.0041 13.7384C10.156 13.442 9.49354 12.5778 9.13635 11.3014C8.76419 9.96705 7.44816 8.2625 5.89068 7.7206C5.04559 7.4262 4.23941 7.53198 3.55994 8.02498C3.16055 8.30833 2.86312 8.71292 2.71178 9.17871C2.56045 9.6445 2.56327 10.1467 2.71984 10.6107C3.24865 12.2375 4.48984 12.2265 5.58637 12.2165C6.65894 12.2075 7.58585 12.1995 7.98894 13.441C8.39203 14.6825 7.63674 15.2204 6.76371 15.8442C5.87172 16.4819 4.862 17.2014 5.38981 18.8281C5.53599 19.2955 5.8288 19.7034 6.22488 19.9914C6.62095 20.2794 7.09922 20.4321 7.58884 20.4269C9.29898 20.4269 9.67214 19.2413 10.0014 18.1974C10.3237 17.1745 10.604 16.2902 11.9081 16.2902C13.2141 16.2902 13.4915 17.1745 13.8148 18.1974C14.144 19.2423 14.5172 20.4269 16.2273 20.4269C16.717 20.4322 17.1953 20.2796 17.5914 19.9916C17.9876 19.7036 18.2803 19.2956 18.4264 18.8281C18.9552 17.2014 17.9445 16.4789 17.0525 15.8442C16.1794 15.2204 15.4251 14.6825 15.8262 13.441C16.2293 12.1985 17.1562 12.2085 18.2288 12.2165C19.3253 12.2255 20.5655 12.2365 21.0943 10.6107C21.2508 10.1469 21.2536 9.64503 21.1025 9.17945C20.9513 8.71388 20.6543 8.30941 20.2552 8.02598Z" fill="#DB812E"/>
<path d="M52.3917 19.4659V16.3822C51.4438 16.5069 50.7265 16.5319 50.0729 16.5319C49.0592 16.5319 48.6442 16.1257 48.6442 15.1307V8.43325H52.1752V5.38941H48.6442V0.986328L45.0064 1.8895V15.4271C45.0064 18.2963 46.5589 19.8731 49.3725 19.8731C50.3653 19.8731 51.381 19.7414 52.3917 19.4659ZM89.7503 19.4659V16.3822C88.8025 16.5069 88.0851 16.5319 87.4316 16.5319C86.4159 16.5319 86.0018 16.1257 86.0018 15.1307V8.43325H89.5328V5.38941H86.0018V0.986328L82.364 1.8895V15.4271C82.364 18.2963 83.9145 19.8731 86.7292 19.8731C87.7229 19.8731 88.7396 19.7414 89.7503 19.4659ZM67.6882 19.3032V16.5259L67.0995 16.6057C66.7094 16.6596 66.5517 16.4321 66.5517 15.9121V10.7805C66.5517 9.88431 66.5048 8.9033 66.1606 7.98316C65.4582 6.06105 63.6962 5.04511 61.0641 5.04511C57.991 5.04511 55.9696 6.50516 55.5146 8.98613L58.876 9.48013C59.0756 8.21669 60.1592 7.94025 61.0621 7.94025C62.7533 7.94025 63.1005 8.73764 63.1005 9.93621V10.556L59.4069 10.8374C56.5862 11.0519 54.7923 12.8164 54.7923 15.3522C54.7923 17.5308 56.3348 19.8721 59.7231 19.8721C61.5311 19.8721 62.9159 19.0268 63.6233 18.0887C63.8827 18.9679 64.639 19.7394 65.9351 19.7394C66.7722 19.7414 67.1713 19.5507 67.6882 19.3032ZM63.1025 13.8403C63.1025 15.6786 61.8853 16.8193 59.9267 16.8193C59.1115 16.8193 58.2425 16.2764 58.2425 15.2744C58.2425 14.2535 59.1085 13.7205 59.9676 13.6507L63.1025 13.4012V13.8403ZM38.4981 11.041L35.7942 10.6408C35.0339 10.529 34.4951 10.2117 34.4951 9.43822C34.4951 8.52507 35.1746 7.95322 36.5335 7.95322C37.9114 7.95322 38.4711 8.75959 38.5529 9.53602L41.7338 8.84342C41.2688 6.74766 39.4459 5.05908 36.5515 5.05908C33.7847 5.05908 31.2514 6.67182 31.2514 9.73561C31.2514 12.0739 33.1591 13.3922 34.4442 13.5858L37.7996 14.0768C38.4372 14.1706 38.9062 14.6137 38.9062 15.3562C38.9062 16.6536 37.6081 16.9251 36.5165 16.9251C34.978 16.9251 34.2477 16.1646 34.118 15.0968L30.994 15.8353C31.425 17.7793 33.1352 19.8721 36.4926 19.8721C40.311 19.8721 42.0999 17.6646 42.0999 15.0638C42.1029 13.0778 40.7669 11.3763 38.4981 11.041Z" fill="black"/>
<path d="M103.945 6.25172C102.975 5.46232 101.782 5.04616 100.495 5.04616C98.8887 5.04616 97.4948 5.65892 96.6837 6.68884L96.4961 5.38947H93.3632V23.9938H96.967V18.7055C97.7373 19.431 99.0373 19.8731 100.468 19.8731C101.834 19.8731 103.004 19.4869 103.944 18.7215C105.626 17.3413 106.479 15.2186 106.479 12.4222C106.48 9.74864 105.604 7.61496 103.945 6.25172ZM101.966 15.7585C101.425 16.4511 100.706 16.8034 99.8266 16.8034C97.3312 16.8034 96.8074 14.4491 96.8074 12.4741C96.8074 10.4862 97.3312 8.11795 99.8266 8.11795C100.705 8.11795 101.424 8.47023 101.966 9.16283C102.532 9.90333 102.821 11.0171 102.821 12.4741C102.821 13.9342 102.541 15.008 101.966 15.7585ZM151.637 6.25172C150.667 5.46232 149.473 5.04616 148.186 5.04616C146.581 5.04616 145.186 5.65892 144.376 6.68884L144.188 5.38947H141.056V23.9938H144.659V18.7055C145.43 19.431 146.73 19.8731 148.16 19.8731C149.526 19.8731 150.697 19.4869 151.636 18.7215C153.318 17.3413 154.169 15.2186 154.169 12.4222C154.17 9.74864 153.295 7.61496 151.637 6.25172ZM149.656 15.7585C149.115 16.4511 148.395 16.8034 147.516 16.8034C145.021 16.8034 144.498 14.4491 144.498 12.4741C144.498 10.4862 145.021 8.11795 147.516 8.11795C148.395 8.11795 149.115 8.47023 149.656 9.16283C150.222 9.90333 150.51 11.0171 150.51 12.4741C150.511 13.9342 150.232 15.008 149.656 15.7585ZM131.321 16.6986C132.087 16.6986 132.838 16.3862 133.332 15.8613C133.982 15.1457 134.286 14.0619 134.286 12.4542C134.286 10.8454 133.982 9.77459 133.332 9.05904C132.836 8.5351 132.085 8.22074 131.321 8.22074C130.947 8.21716 130.576 8.28951 130.23 8.43342C129.884 8.57733 129.571 8.78981 129.31 9.05804C128.661 9.77359 128.356 10.8444 128.356 12.4542C128.356 14.0619 128.661 15.1437 129.308 15.8593C129.547 16.1128 130.224 16.6986 131.321 16.6986ZM137.939 12.4552C137.939 14.6427 137.443 16.2026 136.281 17.6616C135.405 18.7325 133.642 19.8731 131.319 19.8731C128.998 19.8731 127.235 18.7305 126.359 17.6616C125.197 16.2026 124.701 14.6437 124.701 12.4552C124.701 10.2646 125.197 8.71773 126.36 7.25769C127.235 6.18685 128.998 5.04517 131.319 5.04517C133.644 5.04517 135.406 6.18685 136.283 7.25869C137.444 8.71873 137.939 10.2656 137.939 12.4552Z" fill="#DB812E"/>
<path d="M79.4595 8.78146V5.2995C79.0721 5.23454 78.68 5.20116 78.2872 5.19971C76.5202 5.19971 75.1213 5.93023 74.4369 7.16473L74.1874 5.38833H71.1094V19.5327H74.7372V12.4091C74.7372 10.0689 76.0552 8.61679 78.1804 8.61679C78.5117 8.61679 79.0544 8.66769 79.4595 8.78146Z" fill="black"/>
<path d="M163.01 16.468C163.01 16.468 162.465 16.5049 162.317 16.5049C161.299 16.5049 161.115 16.0978 161.115 15.3024V0.00634766H157.487V15.8642C157.487 18.3931 158.844 19.7324 161.41 19.7324C162.265 19.7324 163.011 19.5218 163.011 19.5218L163.01 16.468ZM122.06 13.6507C122.06 13.6507 122.097 12.5879 122.097 12.1707C122.097 10.3414 121.71 8.94126 120.865 7.67083C119.747 5.97926 117.906 5.04614 115.68 5.04614C113.866 5.04614 112.298 5.67088 111.149 6.85249C109.833 8.19377 109.107 10.2017 109.107 12.503C109.107 14.8014 109.88 16.7774 111.287 18.1287C112.521 19.3043 113.987 19.8751 115.76 19.8751C117.752 19.8751 119.447 19.1656 120.538 17.8772C120.799 17.5618 121.072 17.1347 121.295 16.6766L118.22 15.3653C118.104 15.72 117.907 16.0429 117.644 16.3083C117.196 16.7544 116.637 16.9381 115.709 16.9381C114.979 16.9381 114.316 16.6606 113.741 16.1167C113.132 15.5349 112.773 14.6407 112.767 13.6537H122.06V13.6507ZM113.433 9.00313C113.918 8.35644 114.728 7.98519 115.654 7.98519C116.503 7.98519 117.197 8.24866 117.668 8.74466C118.161 9.28756 118.427 10.035 118.474 10.9532H112.755C112.794 10.1538 112.999 9.55701 113.433 9.00313ZM177.964 13.6507C177.964 13.6507 178 12.5879 178 12.1707C178 10.3414 177.615 8.94126 176.77 7.67083C175.652 5.97926 173.81 5.04614 171.585 5.04614C169.77 5.04614 168.204 5.67088 167.055 6.85249C165.738 8.19377 165.011 10.2017 165.011 12.503C165.011 14.8014 165.784 16.7774 167.19 18.1287C168.427 19.3043 169.89 19.8751 171.664 19.8751C173.657 19.8751 175.352 19.1656 176.442 17.8772C176.704 17.5618 176.976 17.1347 177.2 16.6766L174.125 15.3653C174.009 15.7203 173.811 16.0433 173.548 16.3083C173.099 16.7544 172.54 16.9381 171.613 16.9381C170.885 16.9381 170.221 16.6606 169.645 16.1167C169.037 15.5349 168.678 14.6407 168.672 13.6537H177.964V13.6507ZM169.338 9.00313C169.822 8.35644 170.634 7.98519 171.558 7.98519C172.408 7.98519 173.103 8.24866 173.574 8.74466C174.066 9.28756 174.331 10.035 174.38 10.9532H168.66C168.699 10.1538 168.904 9.55701 169.338 9.00313Z" fill="#DB812E"/>
</g>
<defs>
<clipPath id="clip0_39_1769">
<rect width="178" height="24" fill="white"/>
</clipPath>
</defs>
</svg>
