<svg width="48" height="48" viewBox="0 0 48 48" fill="none" xmlns="http://www.w3.org/2000/svg">
<g clip-path="url(#clip0_45_1479)">
<path d="M18 10C19.0609 10 20.0783 10.4214 20.8284 11.1716C21.5786 11.9217 22 12.9391 22 14V26C22 32.26 18.7 36.386 12.486 37.94C12.2305 38.0059 11.9645 38.0207 11.7033 37.9834C11.4421 37.9461 11.1909 37.8574 10.9641 37.7226C10.7373 37.5878 10.5394 37.4094 10.3819 37.1978C10.2243 36.9861 10.1102 36.7454 10.0461 36.4895C9.98198 36.2335 9.96914 35.9675 10.0083 35.7065C10.0475 35.4456 10.1379 35.195 10.2743 34.9692C10.4108 34.7434 10.5906 34.5468 10.8033 34.3907C11.0161 34.2347 11.2576 34.1223 11.514 34.06C15.968 32.946 18 30.406 18 26V24H12C10.9908 24.0003 10.0189 23.6192 9.2789 22.933C8.53894 22.2468 8.08569 21.3063 8.01 20.3L8 20V14C8 12.9391 8.42143 11.9217 9.17157 11.1716C9.92172 10.4214 10.9391 10 12 10H18Z" fill="#C3DFE2"/>
<path d="M36 10C37.0609 10 38.0783 10.4214 38.8284 11.1716C39.5786 11.9217 40 12.9391 40 14V26C40 32.26 36.7 36.386 30.486 37.94C30.2305 38.0059 29.9645 38.0207 29.7033 37.9834C29.4421 37.9461 29.1909 37.8574 28.9641 37.7226C28.7373 37.5878 28.5394 37.4094 28.3819 37.1978C28.2243 36.9861 28.1102 36.7454 28.0461 36.4895C27.982 36.2335 27.9691 35.9675 28.0083 35.7065C28.0475 35.4456 28.1379 35.195 28.2743 34.9692C28.4108 34.7434 28.5906 34.5468 28.8033 34.3907C29.0161 34.2347 29.2576 34.1223 29.514 34.06C33.968 32.946 36 30.406 36 26V24H30C28.9908 24.0003 28.0189 23.6192 27.2789 22.933C26.5389 22.2468 26.0857 21.3063 26.01 20.3L26 20V14C26 12.9391 26.4214 11.9217 27.1716 11.1716C27.9217 10.4214 28.9391 10 30 10H36Z" fill="#C3DFE2"/>
</g>
<defs>
<clipPath id="clip0_45_1479">
<rect width="48" height="48" fill="white"/>
</clipPath>
</defs>
</svg>
