<svg width="162" height="24" viewBox="0 0 162 24" fill="none" xmlns="http://www.w3.org/2000/svg">
<path fill-rule="evenodd" clip-rule="evenodd" d="M53.1197 23.6803V16.6388C53.1197 14.0803 53.7591 12.1594 55.0397 11.1192C56.2392 9.91877 57.8395 9.75846 59.5992 10.4789V7.67908C56.5589 6.87847 54.3192 7.83847 52.9594 10.6383C52.9594 9.51801 52.9594 8.47877 52.8792 7.59893H50.0794C50.1595 9.27939 50.1595 14.6395 50.1595 23.6794L53.1197 23.6803ZM72.8789 23.6803C72.7988 22.8797 72.7195 19.5989 72.7195 13.7597C72.7195 11.3597 72.1594 9.59908 70.9589 8.71924C69.8386 7.75924 68.2392 7.28015 66.3994 7.28015C64.5595 7.28015 62.8791 7.76016 61.2788 8.64V11.2805C62.6395 10.2403 64.2389 9.68016 65.9194 9.68016C67.6791 9.68016 68.8786 10.2403 69.4388 11.3606C69.8386 12 69.9989 12.7997 69.9989 13.9209C65.8392 13.6003 62.9592 14.0812 61.2788 15.36C59.9991 16.3191 59.3588 17.5195 59.3588 18.9605C59.3588 20.4788 59.8388 21.6792 60.7988 22.5591C61.7588 23.4389 63.1186 23.9198 64.7991 23.9198C67.1189 23.9198 68.8786 22.9589 70.2385 20.9597V23.6803H72.8789ZM70.0791 16.0003C69.9989 16.2398 69.9989 16.5595 69.9989 16.9594C69.9989 18.4795 69.5991 19.68 68.7183 20.3995C67.8385 21.1983 66.7191 21.6 65.5186 21.6C64.5586 21.6 63.7589 21.3586 63.1988 20.8786C62.6395 20.3995 62.3991 19.7592 62.3991 19.0397C62.3991 18.3202 62.7197 17.6789 63.2789 17.2008C64.3992 16.1588 66.6389 15.7589 70.0791 16.0003ZM144.398 23.6803C144.317 22.8797 144.317 19.5989 144.317 13.7597C144.317 11.3597 143.758 9.59908 142.557 8.71924C141.357 7.75924 139.838 7.28015 137.998 7.28015C136.159 7.28015 134.399 7.76016 132.797 8.64V11.2805C134.238 10.2403 135.757 9.68016 137.517 9.68016C139.197 9.68016 140.398 10.2403 141.036 11.3606C141.357 12 141.516 12.7997 141.516 13.9209C137.357 13.6003 134.476 14.0812 132.796 15.36C131.516 16.3191 130.876 17.5195 130.876 18.9605C130.876 20.4788 131.356 21.6792 132.317 22.5591C133.357 23.4389 134.637 23.9198 136.315 23.9198C138.637 23.9198 140.476 22.9589 141.757 20.9597V23.6803H144.398ZM141.598 16.0003C141.517 16.2398 141.517 16.5595 141.517 16.9594C141.517 18.4795 141.117 19.68 140.237 20.3995C139.358 21.1983 138.317 21.6 137.038 21.6C136.077 21.6 135.357 21.3586 134.797 20.8786C134.238 20.3995 133.917 19.7592 133.917 19.0397C133.917 18.3202 134.238 17.6789 134.797 17.2008C135.917 16.1588 138.237 15.7589 141.598 16.0003ZM0 7.59985V11.1202H9.51985C10.4798 11.1202 11.1994 11.4398 11.6794 11.9198C12.2395 12.4791 12.48 13.2014 12.48 14.0812V18.9614C12.48 21.2812 12.48 22.8806 12.3998 23.6812C13.6251 23.6001 14.8543 23.6001 16.0795 23.6812V14.7197C16.0795 14.2406 15.9202 13.8398 15.5203 13.44L10.1602 8.16C9.83954 7.75923 9.43969 7.59985 8.95969 7.59985H0ZM33.9197 7.59985H25.0392C24.5592 7.59985 24.0792 7.75923 23.7595 8.16L18.4003 13.44C18.0005 13.8398 17.8402 14.2406 17.8402 14.7197V23.6812C19.0654 23.6001 20.2946 23.6001 21.5198 23.6812C21.4397 22.8806 21.4397 21.2812 21.4397 18.9614V14.0812C21.4397 13.2014 21.7603 12.48 22.2394 11.9198C22.7995 11.4398 23.52 11.1202 24.3998 11.1202H33.9197V7.59985ZM75.1988 23.6803H78.0779V16.0795C78.0779 13.8389 78.5579 12.1594 79.5179 11.1994C80.3977 10.2394 81.4379 9.75939 82.6374 9.75939C83.8379 9.75939 84.7177 10.1602 85.358 10.9598C85.9172 11.7595 86.2379 13.0402 86.2379 14.8791V23.6803H89.198V14.9602C89.198 12.0792 88.6388 10.08 87.5175 8.9597C86.3982 7.83939 85.0383 7.28015 83.438 7.28015C82.3168 7.28015 81.2775 7.5197 80.3175 7.9997C79.3575 8.4797 78.5579 9.12 77.9185 9.99985V7.59985H75.1177C75.1177 8.47969 75.1177 9.35954 75.1979 10.2394L75.1988 23.6803ZM112.318 21.3586C111.118 21.3586 109.918 21.038 108.559 20.2392L108.399 22.8788C109.679 23.5191 111.118 23.8378 112.718 23.8378C114.398 23.8378 115.678 23.438 116.799 22.5582C117.919 21.6783 118.478 20.4778 118.478 18.9595C118.478 17.1998 117.519 15.8391 115.678 14.8782L113.199 13.5985C112.159 13.0392 111.6 12.398 111.6 11.5182C111.6 11.1183 111.839 10.6374 112.319 10.2375C112.719 9.75755 113.44 9.59816 114.399 9.59816C115.44 9.59816 116.48 9.91785 117.599 10.478L117.92 7.99878C116.481 7.43862 115.28 7.19908 114.24 7.19908C112.32 7.19908 110.959 7.67908 109.92 8.47877C108.961 9.35862 108.481 10.478 108.481 11.9982C108.481 12.7979 108.72 13.4382 109.2 14.0794C109.602 14.7989 110.322 15.3591 111.281 15.8391L114.001 17.3574C114.881 17.8374 115.281 18.3975 115.281 19.1171C115.281 19.8385 115.042 20.3986 114.482 20.7975C113.918 21.1983 113.198 21.3586 112.318 21.3586ZM118.798 9.75939H122.477V18.6398C122.477 20.4788 122.879 21.7603 123.759 22.6402C124.558 23.4389 125.758 23.8388 127.278 23.8388C127.998 23.8388 128.878 23.6803 129.837 23.4389V20.9597C129.198 21.2803 128.638 21.4397 128.077 21.4397C127.278 21.4397 126.638 21.1983 126.157 20.6391C125.678 20.1591 125.358 19.2783 125.358 17.9995V9.75939H129.677V7.59985H125.358V2.88001L122.477 3.92016V7.59985H118.798V9.75939ZM106.8 23.6803C106.639 22.7986 106.558 14.8791 106.558 0H103.679V10.08C103.199 9.28031 102.479 8.64 101.518 8.16C100.559 7.68 99.5977 7.36031 98.4783 7.36031C96.3169 7.36031 94.478 8.16 93.1182 9.6C91.7574 11.1202 91.1189 13.1194 91.1189 15.6806C91.1189 18.3202 91.6782 20.3194 93.0389 21.8405C94.2394 23.2795 96.0783 24 98.3972 24C99.4374 24 100.478 23.7605 101.518 23.2805C102.479 22.7212 103.277 22.08 103.839 21.1209C103.839 21.7612 103.919 22.56 103.998 23.6812L106.8 23.6803ZM98.9592 9.9197C100.318 9.9197 101.518 10.4789 102.398 11.52C103.277 12.7205 103.679 14.0803 103.679 15.6806C103.679 17.3592 103.277 18.72 102.398 19.8412C101.438 20.9606 100.317 21.5198 98.8782 21.5198C97.4391 21.5198 96.3179 21.0399 95.4398 20.0015C94.6392 18.9614 94.1583 17.5205 94.1583 15.8409C94.1583 14.1605 94.6383 12.7205 95.4398 11.6002C96.3179 10.4789 97.4391 9.9197 98.9592 9.9197ZM161.918 23.6803C161.757 22.7986 161.678 14.8791 161.678 0H158.797V10.08C158.317 9.28031 157.597 8.64 156.638 8.16C155.758 7.68 154.718 7.36031 153.596 7.36031C151.437 7.36031 149.598 8.16 148.238 9.6C146.877 11.1202 146.237 13.1194 146.237 15.6806C146.237 18.3202 146.798 20.3194 148.078 21.8405C149.357 23.2795 151.198 24 153.517 24C154.557 24 155.597 23.7605 156.638 23.2805C157.597 22.7212 158.397 22.08 158.957 21.1209C158.957 21.7612 159.038 22.56 159.118 23.6812L161.918 23.6803ZM153.998 9.9197C155.437 9.9197 156.638 10.4789 157.517 11.52C158.415 12.7199 158.893 14.182 158.878 15.6806C158.878 17.3592 158.398 18.72 157.517 19.8412C156.638 20.9606 155.437 21.5198 153.998 21.5198C152.637 21.5198 151.438 21.0399 150.558 20.0015C149.757 18.9614 149.278 17.5205 149.278 15.8409C149.278 14.1605 149.757 12.7205 150.558 11.6002C151.438 10.4789 152.638 9.9197 153.998 9.9197Z" fill="black"/>
</svg>
