<svg width="176" height="24" viewBox="0 0 176 24" fill="none" xmlns="http://www.w3.org/2000/svg">
<path d="M23.584 21.0307C23.7181 21.0307 23.8298 21.0531 23.8634 21.1876C23.8969 21.3108 23.8298 21.4229 23.6958 21.4677C16.0858 23.9999 9.20229 23.2716 7.39201 19.3837C5.29118 14.8683 9.80572 7.78703 18.8013 3.58535C24.6791 0.840256 31.6297 -8.02875e-05 35.5855 1.00832C35.7196 1.03073 35.8202 1.10916 35.8202 1.23241C35.8202 1.36687 35.7308 1.4565 35.5855 1.46771C32.9595 1.71421 30.0318 2.4537 27.0928 3.6974C18.8571 7.21561 13.5939 13.4229 15.3483 17.5685C16.3652 19.9663 19.5165 21.154 23.584 21.0307Z" fill="#4B5563"/>
<path d="M40.2341 13.6248C40.2341 13.8152 40.0889 13.9385 39.8877 13.9721C32.7807 15.0141 29.8194 15.9553 28.9701 22.3306C28.9254 22.5435 28.8137 22.678 28.6237 22.678C28.4338 22.678 28.322 22.5435 28.2773 22.3306C27.428 15.9553 24.4779 15.0141 17.3597 13.9721C17.1474 13.9385 17.0133 13.8152 17.0133 13.6248C17.0133 13.4231 17.1586 13.311 17.3597 13.2774C24.4668 12.2354 27.428 11.2942 28.2773 4.91887C28.322 4.70599 28.4338 4.57153 28.6237 4.57153C28.8137 4.57153 28.9254 4.70599 28.9701 4.91887C29.8194 11.2942 32.7807 12.2354 39.8877 13.2774C40.0889 13.311 40.2341 13.4343 40.2341 13.6248ZM72.2941 5.15417H69.3663C66.2933 5.15417 64.6506 7.03652 64.6506 9.88246V17.143C64.6506 19.9777 66.2933 21.8713 69.3663 21.8713H72.2941C75.3559 21.8713 77.0098 19.9777 77.0098 17.143V9.88246C77.0098 7.04772 75.3671 5.15417 72.2941 5.15417ZM73.188 16.8853C73.188 18.1962 72.864 19.2718 71.6124 19.2718H70.048C68.7964 19.2718 68.4724 18.1962 68.4724 16.8853V10.1402C68.4724 8.84044 68.7964 7.75361 70.048 7.75361H71.6124C72.864 7.75361 73.188 8.82924 73.188 10.1402V16.8853ZM56.1132 5.2326H42.6478V21.804H46.4696V7.83204H49.8219V21.804H53.6437V7.83204H55.4316C56.4708 7.83204 56.996 8.57153 56.996 9.68078V21.804H60.8177V9.96089C60.8289 7.11495 59.1863 5.2326 56.1132 5.2326ZM119.518 11.72C122.736 11.72 124.692 13.6135 124.692 16.7172C124.692 20.0785 122.814 21.7704 119.518 21.7704H112.042V19.1598H118.68C120.188 19.1598 120.87 18.3867 120.87 17.0645C120.87 15.7424 120.066 14.9693 118.557 14.9693H116.948C113.998 14.9693 111.774 13.0981 111.774 10.0841C111.774 6.95809 113.495 5.19898 116.948 5.19898H123.552V7.79842H117.808C116.3 7.79842 115.596 8.51551 115.596 9.75921C115.596 11.0029 116.478 11.72 117.931 11.72H119.518ZM166.384 14.5435C168.317 13.9385 169.346 12.2802 169.346 9.9945C169.346 7.09254 167.703 5.21019 164.63 5.21019H156.428V21.7816H160.249V7.79842H163.948C164.976 7.79842 165.513 8.86285 165.513 9.9945C165.513 11.1262 164.976 12.1906 163.948 12.1906H161.434L166.306 21.7704H170.698C170.709 21.7816 168.116 17.4567 166.384 14.5435ZM125.809 5.21019V7.80963H130.089V21.7816H133.922V7.80963H138.202V5.21019H137.688H125.809ZM88.0056 5.13176H85.0778C82.016 5.13176 80.3621 7.02531 80.3621 9.86005V17.1206C80.3621 19.9553 82.016 21.8376 85.0778 21.8376H88.0056C91.0786 21.8376 92.7212 19.9553 92.7212 17.1206V9.86005C92.7212 7.02531 91.0674 5.13176 88.0056 5.13176ZM88.8884 16.8628C88.8884 18.1738 88.5643 19.2494 87.3239 19.2494H85.7595C84.5079 19.2494 84.195 18.1738 84.195 16.8628V10.1178C84.195 8.80683 84.5191 7.7312 85.7595 7.7312H87.3239C88.5755 7.7312 88.8884 8.80683 88.8884 10.1178V16.8628ZM148.27 5.21019H143.744L137.844 21.7816H141.51C141.51 21.7816 142.828 17.7928 143.029 17.2102H148.997C149.187 17.804 150.516 21.7816 150.516 21.7816H154.17L148.27 5.21019ZM143.934 14.6332C144.236 13.7032 145.03 11.283 145.03 11.283C145.32 10.3755 145.599 9.52391 145.868 8.64996C145.89 8.57153 145.924 8.51551 146.002 8.51551C146.08 8.51551 146.114 8.58274 146.136 8.64996C146.404 9.52391 146.672 10.3867 146.974 11.283C146.974 11.283 147.767 13.7032 148.069 14.6332H143.934ZM104.186 5.19898H96.543V21.7816H100.365V7.80963H103.505C104.544 7.80963 105.08 8.54912 105.08 9.65837V21.7816H108.902V9.92727C108.902 7.09254 107.248 5.19898 104.186 5.19898Z" fill="#4B5563"/>
</svg>
