<svg width="56" height="56" viewBox="0 0 56 56" fill="none" xmlns="http://www.w3.org/2000/svg">
<path d="M51.4387 37.273L43.4774 28.3769C43.3017 28.1795 43.0862 28.0216 42.8451 27.9135C42.604 27.8055 42.3428 27.7496 42.0786 27.7497H35.0128C34.9692 27.7497 34.9284 27.7596 34.8855 27.7625V23.6156C34.885 23.1181 34.6871 22.6411 34.3353 22.2894C33.9835 21.9376 33.5065 21.7397 33.009 21.7392H26.7999C28.144 18.877 29.1424 15.9749 29.1424 13.6437C29.1424 8.02792 24.8102 3.45898 19.485 3.45898C14.1598 3.45898 9.82665 8.02798 9.82665 13.6437C9.82665 15.9749 10.8252 18.877 12.1693 21.7392H5.96007C5.46257 21.7397 4.9856 21.9376 4.63381 22.2894C4.28203 22.6412 4.08416 23.1181 4.08362 23.6156V46.657C4.08411 47.1546 4.28194 47.6317 4.63372 47.9836C4.98549 48.3356 5.46249 48.5336 5.96008 48.5343H9.13052C9.21871 49.6257 9.71456 50.644 10.5194 51.3864C11.3242 52.1288 12.3791 52.541 13.4741 52.541C14.569 52.541 15.6239 52.1288 16.4287 51.3864C17.2336 50.644 17.7294 49.6257 17.8176 48.5343H37.1809C37.2691 49.6257 37.765 50.644 38.5698 51.3864C39.3746 52.1288 40.4295 52.541 41.5245 52.541C42.6194 52.541 43.6743 52.1288 44.4791 51.3864C45.284 50.644 45.7798 49.6257 45.868 48.5343H50.0399C50.5375 48.5336 51.0145 48.3356 51.3663 47.9836C51.7181 47.6317 51.9159 47.1546 51.9164 46.657V38.5248C51.9167 38.0629 51.7466 37.6172 51.4387 37.273ZM48.6368 36.7663H42.0256C41.9919 36.7662 41.9596 36.7527 41.9357 36.7289C41.9118 36.705 41.8984 36.6727 41.8983 36.639V33.6337C41.8984 33.617 41.9017 33.6005 41.9081 33.5852C41.9146 33.5698 41.924 33.5558 41.9358 33.5441C41.9476 33.5323 41.9616 33.523 41.977 33.5167C41.9925 33.5104 42.009 33.5072 42.0256 33.5072H45.7205L48.6368 36.7663ZM19.485 5.20902C23.8454 5.20902 27.3924 8.9927 27.3924 13.6437C27.3924 17.8085 23.3404 25.1571 19.4841 30.743C15.6295 25.1571 11.5767 17.8085 11.5767 13.6437C11.5767 8.9927 15.1245 5.20902 19.485 5.20902ZM13.4736 50.791C12.9533 50.7909 12.4447 50.6364 12.0122 50.3472C11.5796 50.058 11.2425 49.6471 11.0435 49.1663C10.8445 48.6856 10.7925 48.1566 10.8941 47.6463C10.9958 47.136 11.2464 46.6673 11.6144 46.2994C11.9824 45.9315 12.4512 45.681 12.9615 45.5796C13.4718 45.4781 14.0008 45.5303 14.4815 45.7294C14.9622 45.9286 15.373 46.2658 15.6621 46.6984C15.9512 47.1311 16.1055 47.6397 16.1055 48.16C16.1047 48.8577 15.8272 49.5266 15.3338 50.0199C14.8403 50.5132 14.1713 50.7905 13.4736 50.791ZM33.1355 46.7843H17.6126C17.3283 45.9107 16.7748 45.1495 16.0314 44.6096C15.288 44.0698 14.3928 43.779 13.4741 43.779C12.5553 43.779 11.6601 44.0698 10.9167 44.6096C10.1733 45.1495 9.61982 45.9107 9.33548 46.7843H5.96007C5.94341 46.7843 5.92692 46.7809 5.91155 46.7745C5.89617 46.7681 5.88221 46.7587 5.87047 46.7469C5.85873 46.735 5.84943 46.721 5.8431 46.7056C5.83678 46.6902 5.83355 46.6737 5.83361 46.657V23.6156C5.83357 23.599 5.83682 23.5826 5.84316 23.5672C5.8495 23.5518 5.85882 23.5379 5.87057 23.5261C5.88232 23.5144 5.89627 23.5051 5.91163 23.4987C5.92699 23.4924 5.94346 23.4891 5.96007 23.4892H13.0299C14.5819 26.4263 16.3145 29.2644 18.2178 31.9871C18.3589 32.1928 18.5479 32.361 18.7686 32.4773C18.9892 32.5936 19.2349 32.6544 19.4843 32.6545C19.7337 32.6546 19.9794 32.5939 20.2002 32.4778C20.4209 32.3617 20.6101 32.1936 20.7513 31.988C22.6545 29.2649 24.3871 26.4266 25.9392 23.4892H33.009C33.0256 23.4892 33.0421 23.4924 33.0574 23.4987C33.0728 23.5051 33.0868 23.5144 33.0985 23.5262C33.1103 23.5379 33.1196 23.5519 33.1259 23.5672C33.1323 23.5826 33.1355 23.599 33.1355 23.6157L33.1355 46.7843ZM41.524 50.791C41.0037 50.7909 40.4951 50.6364 40.0626 50.3472C39.63 50.058 39.2929 49.6471 39.0939 49.1663C38.8949 48.6856 38.843 48.1566 38.9446 47.6463C39.0462 47.136 39.2968 46.6673 39.6648 46.2994C40.0328 45.9315 40.5016 45.681 41.0119 45.5796C41.5222 45.4781 42.0512 45.5303 42.5319 45.7294C43.0126 45.9286 43.4235 46.2658 43.7125 46.6984C44.0016 47.1311 44.1559 47.6397 44.1559 48.16C44.1552 48.8577 43.8776 49.5267 43.3842 50.0199C42.8908 50.5132 42.2217 50.7905 41.524 50.791ZM50.1664 46.657C50.1665 46.6737 50.1632 46.6902 50.1569 46.7056C50.1506 46.721 50.1413 46.735 50.1296 46.7469C50.1178 46.7587 50.1039 46.7681 50.0885 46.7745C50.0731 46.7809 50.0566 46.7843 50.0399 46.7843H45.663C45.3787 45.9107 44.8252 45.1495 44.0818 44.6096C43.3384 44.0698 42.4432 43.779 41.5245 43.779C40.6057 43.779 39.7106 44.0698 38.9672 44.6096C38.2237 45.1495 37.6702 45.9107 37.3859 46.7843H34.8855V29.6261C34.8855 29.6095 34.8889 29.593 34.8953 29.5776C34.9017 29.5622 34.9111 29.5483 34.923 29.5365C34.9348 29.5248 34.9488 29.5155 34.9642 29.5092C34.9796 29.5028 34.9961 29.4996 35.0128 29.4997H42.0786C42.0964 29.4997 42.114 29.5036 42.1302 29.511C42.1464 29.5183 42.1608 29.529 42.1726 29.5424L44.1545 31.7573H42.0257C41.5281 31.7578 41.051 31.9556 40.699 32.3074C40.3471 32.6591 40.1491 33.1361 40.1483 33.6337V36.639C40.149 37.1367 40.347 37.6138 40.699 37.9657C41.0509 38.3176 41.528 38.5156 42.0257 38.5163H50.1632L50.1664 38.5249L50.1664 46.657Z" fill="#03373D"/>
<path d="M23.6532 13.1164C23.6533 12.2919 23.4089 11.4859 22.9508 10.8003C22.4928 10.1147 21.8418 9.58036 21.08 9.26479C20.3183 8.94922 19.4801 8.86663 18.6714 9.02747C17.8627 9.1883 17.1199 9.58534 16.5369 10.1684C15.9539 10.7514 15.5568 11.4942 15.396 12.3029C15.2352 13.1115 15.3178 13.9498 15.6333 14.7115C15.9489 15.4732 16.4833 16.1243 17.1688 16.5823C17.8544 17.0403 18.6605 17.2848 19.485 17.2847C20.5901 17.2835 21.6496 16.844 22.4311 16.0625C23.2125 15.2811 23.652 14.2216 23.6532 13.1164ZM17.0659 13.1164C17.0658 12.6381 17.2076 12.1704 17.4733 11.7727C17.739 11.3749 18.1167 11.0648 18.5586 10.8817C19.0005 10.6985 19.4868 10.6505 19.956 10.7438C20.4252 10.837 20.8562 11.0673 21.1945 11.4055C21.5328 11.7437 21.7632 12.1746 21.8566 12.6438C21.95 13.1129 21.9022 13.5992 21.7193 14.0412C21.5363 14.4832 21.2263 14.861 20.8286 15.1268C20.4309 15.3927 19.9633 15.5346 19.485 15.5347C18.8438 15.534 18.229 15.279 17.7755 14.8257C17.322 14.3724 17.0668 13.7577 17.0659 13.1164Z" fill="#03373D"/>
</svg>
