<svg width="20" height="20" viewBox="0 0 20 20" fill="none" xmlns="http://www.w3.org/2000/svg">
<path fill-rule="evenodd" clip-rule="evenodd" d="M17.5 5.83333V14.1667C17.5 16.0075 16.0075 17.5 14.1667 17.5H5.83333C3.9925 17.5 2.5 16.0075 2.5 14.1667V5.83333C2.5 3.9925 3.9925 2.5 5.83333 2.5H14.1667C16.0075 2.5 17.5 3.9925 17.5 5.83333Z" stroke="#1F1F1F" stroke-width="1.5" stroke-linecap="round" stroke-linejoin="round"/>
<path d="M17.5 9.99999H13.5908C13.4333 9.99999 13.2883 10.0892 13.2183 10.23L12.0392 12.5875C11.8858 12.895 11.4475 12.895 11.2942 12.5875L8.69167 7.38416C8.54083 7.08249 8.1125 7.07583 7.9525 7.37249L6.65333 9.78083C6.58 9.91583 6.43917 9.99999 6.28667 9.99999H2.5" stroke="#1F1F1F" stroke-width="1.5" stroke-linecap="round" stroke-linejoin="round"/>
</svg>
