<svg width="36" height="36" viewBox="0 0 36 36" fill="none" xmlns="http://www.w3.org/2000/svg">
<g clip-path="url(#clip0_45_1787)">
<path d="M18 36C27.9411 36 36 27.9411 36 18C36 8.05888 27.9411 0 18 0C8.05888 0 0 8.05888 0 18C0 27.9411 8.05888 36 18 36Z" fill="#FF0000"/>
<path d="M20.4926 18.0075L15.5 20.904V15.0967L20.4926 18.0075Z" fill="url(#paint0_linear_45_1787)"/>
<path d="M35.6548 21.5101C34.9603 24.9952 33.2508 28.197 30.7412 30.7129C28.2316 33.2288 25.0341 34.9464 21.5508 35.6496L9.92188 24.0207C10.5491 24.5096 11.3222 24.774 12.1174 24.7714H23.8979C24.8471 24.7689 25.7565 24.39 26.4265 23.7177C27.0965 23.0454 27.4725 22.1348 27.4719 21.1857V14.8146C27.4747 13.8819 27.1126 12.9851 26.4629 12.3159L35.6548 21.5101Z" fill="url(#paint1_linear_45_1787)"/>
<path d="M23.8874 11.2285H12.1069C11.6361 11.2285 11.1699 11.3213 10.735 11.5015C10.3001 11.6817 9.90494 11.9459 9.57216 12.2789C9.23938 12.6119 8.97547 13.0072 8.79553 13.4423C8.61559 13.8773 8.52313 14.3435 8.52344 14.8143V21.1854C8.52313 21.6561 8.61559 22.1224 8.79553 22.5574C8.97547 22.9924 9.23938 23.3877 9.57216 23.7208C9.90494 24.0538 10.3001 24.3179 10.735 24.4981C11.1699 24.6784 11.6361 24.7711 12.1069 24.7711H23.8874C24.3582 24.7711 24.8243 24.6784 25.2592 24.4981C25.6942 24.3179 26.0893 24.0538 26.4221 23.7208C26.7549 23.3877 27.0188 22.9924 27.1987 22.5574C27.3787 22.1224 27.4711 21.6561 27.4708 21.1854V14.8143C27.4711 14.3435 27.3787 13.8773 27.1987 13.4423C27.0188 13.0072 26.7549 12.6119 26.4221 12.2789C26.0893 11.9459 25.6942 11.6817 25.2592 11.5015C24.8243 11.3213 24.3582 11.2285 23.8874 11.2285ZM15.5008 20.9035V15.0961L20.4934 17.9998L15.5008 20.9035Z" fill="white"/>
</g>
<defs>
<linearGradient id="paint0_linear_45_1787" x1="14.5692" y1="16.0275" x2="18.5197" y2="19.9804" gradientUnits="userSpaceOnUse">
<stop stop-color="#B71C1C"/>
<stop offset="1" stop-color="#B71C1C" stop-opacity="0"/>
</linearGradient>
<linearGradient id="paint1_linear_45_1787" x1="16.975" y1="16.958" x2="30.7356" y2="30.7162" gradientUnits="userSpaceOnUse">
<stop stop-color="#B71C1C"/>
<stop offset="1" stop-color="#B71C1C" stop-opacity="0"/>
</linearGradient>
<clipPath id="clip0_45_1787">
<rect width="36" height="36" fill="white"/>
</clipPath>
</defs>
</svg>
