<svg width="24" height="24" viewBox="0 0 24 24" fill="none" xmlns="http://www.w3.org/2000/svg">
<g clip-path="url(#clip0_2035_973)">
<path d="M2 20C2.22717 20.3165 2.52797 20.5729 2.87642 20.7472C3.22488 20.9214 3.6105 21.0082 4 21C4.3895 21.0082 4.77512 20.9214 5.12358 20.7472C5.47203 20.5729 5.77283 20.3165 6 20C6.22717 19.6835 6.52797 19.4271 6.87642 19.2529C7.22488 19.0786 7.6105 18.9918 8 19C8.3895 18.9918 8.77512 19.0786 9.12358 19.2529C9.47203 19.4271 9.77283 19.6835 10 20C10.2272 20.3165 10.528 20.5729 10.8764 20.7472C11.2249 20.9214 11.6105 21.0082 12 21C12.3895 21.0082 12.7751 20.9214 13.1236 20.7472C13.472 20.5729 13.7728 20.3165 14 20C14.2272 19.6835 14.528 19.4271 14.8764 19.2529C15.2249 19.0786 15.6105 18.9918 16 19C16.3895 18.9918 16.7751 19.0786 17.1236 19.2529C17.472 19.4271 17.7728 19.6835 18 20C18.2272 20.3165 18.528 20.5729 18.8764 20.7472C19.2249 20.9214 19.6105 21.0082 20 21C20.3895 21.0082 20.7751 20.9214 21.1236 20.7472C21.472 20.5729 21.7728 20.3165 22 20" stroke="#606060" stroke-width="1.5" stroke-linecap="round" stroke-linejoin="round"/>
<path d="M4 18L3 13H21L19 17" stroke="#606060" stroke-width="1.5" stroke-linecap="round" stroke-linejoin="round"/>
<path d="M5 13V7H13L17 13" stroke="#606060" stroke-width="1.5" stroke-linecap="round" stroke-linejoin="round"/>
<path d="M7 7V3H6" stroke="#606060" stroke-width="1.5" stroke-linecap="round" stroke-linejoin="round"/>
</g>
<defs>
<clipPath id="clip0_2035_973">
<rect width="24" height="24" fill="white"/>
</clipPath>
</defs>
</svg>
