<svg width="20" height="20" viewBox="0 0 20 20" fill="none" xmlns="http://www.w3.org/2000/svg">
<path d="M9.90833 10.0917L10.3667 9.63333" stroke="#606060" stroke-width="1.5" stroke-linecap="round" stroke-linejoin="round"/>
<path d="M7.14167 12.8583L6.68333 13.3167" stroke="#606060" stroke-width="1.5" stroke-linecap="round" stroke-linejoin="round"/>
<path d="M6.6775 11.7258C6.60167 12.04 6.67 12.3783 6.91583 12.6242L7.14583 12.8542L7.42 13.1283C7.77667 13.485 8.355 13.485 8.71167 13.1283C9.0075 12.8325 9.065 12.3725 8.84917 12.0133L8.20333 10.935C7.98833 10.5758 8.045 10.1158 8.34083 9.81999C8.6975 9.46332 9.27583 9.46332 9.6325 9.81999L9.90667 10.0942L10.1367 10.3242C10.3817 10.5692 10.45 10.9067 10.3758 11.22" stroke="#606060" stroke-width="1.5" stroke-linecap="round" stroke-linejoin="round"/>
<path d="M13.1727 6.8272C13.2935 6.94794 13.2935 7.14369 13.1727 7.26443C13.052 7.38517 12.8563 7.38517 12.7355 7.26443C12.6148 7.14369 12.6148 6.94794 12.7355 6.8272C12.8563 6.70647 13.052 6.70647 13.1727 6.8272" stroke="#606060" stroke-width="1.5" stroke-linecap="round" stroke-linejoin="round"/>
<path fill-rule="evenodd" clip-rule="evenodd" d="M11.26 3.33334H14.9142C15.8825 3.33334 16.6667 4.11751 16.6667 5.08501V8.73918C16.6667 9.20418 16.4817 9.64918 16.1533 9.97834L9.145 16.9867C8.46083 17.6708 7.35167 17.6708 6.6675 16.9867L3.01333 13.3325C2.32917 12.6483 2.32917 11.5392 3.01333 10.855L10.0217 3.84668C10.35 3.51834 10.7958 3.33334 11.26 3.33334Z" stroke="#606060" stroke-width="1.5" stroke-linecap="round" stroke-linejoin="round"/>
</svg>
