<svg width="1099" height="153" viewBox="0 0 1099 153" fill="none" xmlns="http://www.w3.org/2000/svg">
<path d="M1098.57 115.541H1090.97C1084.8 115.541 1079.17 111.989 1076.52 106.415L1030.23 9.12559C1027.58 3.55128 1021.96 0 1015.78 0H984.527C978.964 0 973.8 2.88993 970.89 7.63174L929.94 74.3649C927.031 79.1067 921.867 81.9966 916.303 81.9966H875.642C872.164 81.9966 868.78 80.8631 866.004 78.7676L825.176 47.9544C822.4 45.859 819.016 44.7254 815.538 44.7254H719.519C716.361 44.7254 713.273 45.6604 710.644 47.4126L668.39 75.5823C665.761 77.3345 662.673 78.2695 659.515 78.2695H613.506C610.217 78.2695 607.008 79.2832 604.315 81.1726L506.366 149.909C503.674 151.798 500.465 152.812 497.175 152.812H449.457C446.202 152.812 443.025 151.819 440.35 149.967L400.116 122.113C397.44 120.26 394.263 119.268 391.008 119.268H354.574C351.221 119.268 347.953 118.214 345.231 116.257L247.381 45.873C244.659 43.9152 241.391 42.8619 238.038 42.8619H147.461C144.268 42.8619 141.149 43.817 138.503 45.6044L77.6696 86.7083C75.0242 88.4957 71.9045 89.4508 68.7119 89.4508H0" stroke="#CAEB66" stroke-width="1.5"/>
</svg>
