<svg width="20" height="20" viewBox="0 0 20 20" fill="none" xmlns="http://www.w3.org/2000/svg">
<g clip-path="url(#clip0_2035_1232)">
<path d="M5.83337 5.83337H5.00004C4.55801 5.83337 4.13409 6.00897 3.82153 6.32153C3.50897 6.63409 3.33337 7.05801 3.33337 7.50004V15C3.33337 15.4421 3.50897 15.866 3.82153 16.1786C4.13409 16.4911 4.55801 16.6667 5.00004 16.6667H12.5C12.9421 16.6667 13.366 16.4911 13.6786 16.1786C13.9911 15.866 14.1667 15.4421 14.1667 15V14.1667" stroke="#606060" stroke-width="1.5" stroke-linecap="round" stroke-linejoin="round"/>
<path d="M16.9875 5.48747C17.3157 5.15926 17.5001 4.71412 17.5001 4.24997C17.5001 3.78581 17.3157 3.34067 16.9875 3.01247C16.6593 2.68426 16.2142 2.49988 15.75 2.49988C15.2858 2.49988 14.8407 2.68426 14.5125 3.01247L7.5 9.99997V12.5H10L16.9875 5.48747Z" stroke="#606060" stroke-width="1.5" stroke-linecap="round" stroke-linejoin="round"/>
<path d="M13.3334 4.16663L15.8334 6.66663" stroke="#606060" stroke-width="1.5" stroke-linecap="round" stroke-linejoin="round"/>
</g>
<defs>
<clipPath id="clip0_2035_1232">
<rect width="20" height="20" fill="white"/>
</clipPath>
</defs>
</svg>
