<svg width="532" height="300" viewBox="0 0 532 300" fill="none" xmlns="http://www.w3.org/2000/svg">
<g clip-path="url(#clip0_45_1216)">
<path d="M0.789612 267.42C0.789612 267.42 8.03737 225.804 47.3151 254.327C86.5928 282.85 87.995 247.548 93.8406 249.418C99.685 251.288 190.632 302.957 196.243 298.983C201.854 295.008 203.491 214.349 200.217 212.244C196.944 210.14 94.0741 172.265 93.1389 175.07C92.2038 177.876 94.3076 242.286 94.7758 243.339C95.2439 244.391 190.632 294.19 195.308 295.242C199.984 296.294 399.295 282.033 400.58 280.746C401.866 279.461 406.191 215.693 399.703 212.186C393.216 208.679 240.197 222.999 239.378 222.999C238.56 222.999 133.527 173.201 132.533 173.143C131.54 173.084 94.9509 173.435 96.6461 174.078C98.3412 174.721 132.592 174.896 132.592 174.546C132.592 174.196 127.156 174.137 126.104 169.52C125.052 164.902 123.065 86.9319 126.104 87.8671C129.143 88.8022 244.697 125.391 244.697 127.32C244.697 129.249 246.451 208.856 243.996 208.506C241.54 208.156 240.78 129.6 241.717 129.132C242.652 128.664 463.588 114.52 463.121 114.053C462.654 113.586 322.104 78.9836 319.765 78.828C317.427 78.6723 301.334 78.8085 300.574 79.4518C299.814 80.0951 292.86 95.116 291.924 94.9408C290.989 94.7657 259.836 47.89 259.603 27.4321C259.369 6.9754 294.555 -11.9624 313.609 12.0014C332.664 35.9653 293.892 88.3352 290.542 87.3222C287.19 86.3092 270.699 42.097 272.929 30.5878C276.612 11.5917 298.297 8.37757 303.439 29.6527C308.583 50.9278 281.346 45.492 281.755 34.4452C282.163 23.3985 293.269 14.8653 300.692 26.4374C308.115 38.0107 293.795 79.6842 291.574 80.6777C289.354 81.6712 129.145 85.2951 132.184 86.8152C135.223 88.3352 246.042 123.871 252.823 123.871C259.604 123.871 463.706 111.597 464.524 113.233C465.343 114.87 468.615 197.984 465.576 202.192C462.537 206.401 360.837 209.673 358.498 209.673C356.16 209.673 355.224 165.72 358.498 164.316C361.772 162.913 455.29 157.965 456.925 161.258C458.562 164.551 448.275 210.375 462.303 213.18C476.33 215.986 480.772 136.495 504.619 169.46C528.467 202.426 504.151 154.03 531.039 156.368" stroke="#33929D" stroke-width="2" stroke-miterlimit="10"/>
</g>
<defs>
<clipPath id="clip0_45_1216">
<rect width="531.106" height="300" fill="white"/>
</clipPath>
</defs>
</svg>
