<svg width="40" height="40" viewBox="0 0 40 40" fill="none" xmlns="http://www.w3.org/2000/svg">
<g clip-path="url(#clip0_39_1590)">
<path d="M22.7174 36.9869C24.1395 38.6731 26.7348 38.668 28.1566 36.9816C31.7077 32.7696 37.3416 24.746 37.4965 16.0878C37.6068 9.92497 32.6977 4.76983 26.5338 4.78458C25.1255 4.78795 23.7798 5.05752 22.5442 5.54552C20.9099 6.19101 19.0904 6.19101 17.456 5.54552C16.2204 5.05752 14.8747 4.78795 13.4664 4.78458C7.3026 4.76983 2.3935 9.92489 2.50378 16.0878C2.65868 24.746 8.29256 32.7696 11.8437 36.9816C13.2655 38.668 15.8607 38.6731 17.2828 36.9869C18.703 35.303 21.2972 35.303 22.7174 36.9869Z" fill="url(#paint0_linear_39_1590)"/>
<path d="M26.534 4.78458C25.1257 4.78795 23.78 5.05752 22.5444 5.54552C22.2064 5.67901 21.8603 5.78324 21.5098 5.86152V36.0596C21.959 36.2698 22.373 36.5784 22.7175 36.9869C23.2921 37.6681 24.0582 38.073 24.8609 38.2028H26.0057C26.8113 38.0723 27.5804 37.6651 28.1567 36.9816C31.7078 32.7696 37.3417 24.746 37.4966 16.0878C37.6069 9.92489 32.6978 4.76983 26.534 4.78458Z" fill="url(#paint1_linear_39_1590)"/>
<path d="M22.2297 5.66163C20.6781 6.18846 18.9863 6.14971 17.4562 5.5454C16.2203 5.05732 14.8748 4.78775 13.4666 4.78446C7.30292 4.76955 2.39327 9.92493 2.50378 16.0877C2.54668 18.4612 3.00174 20.7879 3.71163 23.0008H18.3086C16.6028 21.0682 15.5682 18.5297 15.5682 15.7497C15.5681 11.2218 18.3127 7.33442 22.2297 5.66163Z" fill="url(#paint2_linear_39_1590)"/>
<path d="M15.5681 15.7497C15.5681 13.5545 16.2147 11.5109 17.3257 9.79611L12.3672 4.83752C6.72966 5.39486 2.39994 10.2961 2.50378 16.0876C2.52559 17.2935 2.65421 18.4873 2.8681 19.6601H16.2864C15.8225 18.4455 15.5681 17.1273 15.5681 15.7497Z" fill="url(#paint3_linear_39_1590)"/>
<path d="M3.19531 21.187C4.83155 27.8064 9.00331 33.6131 11.8434 36.9816C13.2652 38.668 15.8604 38.6731 17.2825 36.9869C18.7028 35.303 21.2969 35.303 22.7171 36.9869C24.1392 38.6731 26.7344 38.668 28.1563 36.9816C30.9963 33.613 35.1681 27.8063 36.8043 21.187H3.19531Z" fill="url(#paint4_linear_39_1590)"/>
<path d="M32.4423 17.6636C32.3971 20.11 31.7376 22.4842 30.8002 24.6464C29.9081 26.703 29.2 28.8378 28.732 31.0302C28.2361 33.3544 27.3642 35.4132 26.2281 37.0347C26.1263 37.18 25.8987 37.0741 25.9451 36.9029C25.9531 36.8734 25.9611 36.8437 25.969 36.8136C27.0042 32.9092 24.0385 29.0878 19.9992 29.0878C15.9599 29.0878 12.9942 32.9092 14.0294 36.8136C14.0374 36.8437 14.0454 36.8735 14.0533 36.9029C14.0998 37.0741 13.8721 37.18 13.7703 37.0347C12.6343 35.4132 11.7623 33.3544 11.2664 31.0302C10.7984 28.8377 10.0903 26.703 9.19819 24.6464C8.26085 22.4841 7.6014 20.1099 7.55607 17.6636C7.47513 13.276 10.9645 9.60681 15.3528 9.61709C16.354 9.61983 17.3112 9.81128 18.1896 10.1585C19.3547 10.6183 20.6434 10.6183 21.8086 10.1585C22.687 9.81128 23.6442 9.61983 24.6454 9.61709C29.0339 9.60681 32.5233 13.2767 32.4423 17.6636Z" fill="url(#paint5_linear_39_1590)"/>
<path d="M26.8924 21.1869C26.6433 21.5306 26.5095 21.9431 26.5088 22.3761C26.5095 22.7802 26.6262 23.1659 26.8437 23.4953L28.4378 21.9012C28.5531 21.7859 28.7047 21.7283 28.8564 21.7283C29.0039 21.7283 29.1501 21.7825 29.2647 21.891C29.5069 22.1215 29.4946 22.5215 29.2578 22.7576L26.9075 25.1086C26.106 25.9094 26.1273 27.1988 26.9219 28.0051C27.521 28.6117 27.851 29.4139 27.8504 30.2675C27.8504 31.128 27.5155 31.9371 26.9069 32.5457L25.9297 33.5222C25.8082 33.1091 25.6436 32.7117 25.4404 32.3364L26.069 31.7078C26.4533 31.3229 26.6653 30.8117 26.6653 30.2674C26.6653 29.7232 26.4532 29.2121 26.069 28.8271C25.7327 28.4916 22.7292 24.8389 22.7292 24.8389C22.511 24.5953 22.5316 24.2206 22.7752 24.0024C22.8884 23.9008 23.0298 23.8501 23.1705 23.8501C23.3331 23.8508 23.495 23.9167 23.6124 24.0477L24.8976 25.4826C25.0294 25.6288 25.2675 25.5835 25.3375 25.4003C25.4822 25.0187 25.7025 24.6599 25.9969 24.3462C25.5611 23.7842 25.3237 23.0987 25.3237 22.3761C25.3237 21.9623 25.4006 21.5602 25.5495 21.187C25.7066 20.7903 25.944 20.4259 26.2521 20.1137C27.0474 19.3074 27.068 18.018 26.2672 17.2172L23.9162 14.8662C23.6794 14.6302 23.6671 14.2302 23.9093 13.9996C24.0239 13.8912 24.1701 13.8369 24.3176 13.8369C24.4693 13.8369 24.6209 13.8946 24.7362 14.0099L27.1057 16.3786C27.4364 16.7101 27.68 17.0964 27.8365 17.5088C27.9065 17.6921 28.1446 17.7373 28.2764 17.5912L29.5623 16.1563C29.679 16.0252 29.8409 15.9593 30.0036 15.9586C30.1443 15.9586 30.2863 16.0094 30.3989 16.111C30.6425 16.3291 30.663 16.7038 30.4448 16.9474C30.4448 16.9474 27.4413 20.6001 27.1058 20.9357C27.0277 21.0146 26.9563 21.0984 26.8924 21.1869Z" fill="url(#paint6_linear_39_1590)"/>
<path d="M13.9294 28.8272C13.545 29.2121 13.333 29.7233 13.333 30.2675C13.333 30.8116 13.545 31.3228 13.9294 31.7079L14.5579 32.3364C14.3548 32.7118 14.1901 33.1091 14.0687 33.5222L13.0915 32.5457C12.4828 31.9371 12.1479 31.128 12.1479 30.2675C12.1472 29.4139 12.4774 28.6117 13.0764 28.0051C13.8711 27.1988 13.8923 25.9094 13.0908 25.1086L10.7406 22.7577C10.5038 22.5216 10.4915 22.1216 10.7337 21.891C10.8483 21.7826 10.9945 21.7283 11.142 21.7283C11.2937 21.7283 11.4453 21.786 11.5606 21.9013L13.1546 23.4953C13.3721 23.1659 13.4888 22.7803 13.4895 22.3761C13.4888 21.9431 13.355 21.5307 13.1059 21.1869C13.0421 21.0984 12.9707 21.0147 12.8925 20.9358C12.557 20.6003 9.55344 16.9475 9.55344 16.9475C9.33524 16.7039 9.35579 16.3293 9.5994 16.1111C9.71195 16.0095 9.85399 15.9588 9.99469 15.9588C10.1574 15.9595 10.3192 16.0254 10.4359 16.1564L11.7219 17.5913C11.8537 17.7375 12.0918 17.6922 12.1618 17.509C12.3182 17.0966 12.5618 16.7102 12.8926 16.3788L15.2621 14.01C15.3774 13.8947 15.529 13.837 15.6807 13.837C15.8282 13.837 15.9744 13.8912 16.089 13.9997C16.3312 14.2303 16.3188 14.6303 16.0821 14.8664L13.7311 17.2174C12.9303 18.0181 12.9508 19.3075 13.7462 20.1138C14.0543 20.4261 14.2918 20.7904 14.4489 21.1871C14.5978 21.5603 14.6746 21.9625 14.6746 22.3763C14.6746 23.0988 14.4372 23.7843 14.0014 24.3464C14.2958 24.6599 14.5161 25.0188 14.6609 25.4004C14.7308 25.5836 14.969 25.6289 15.1007 25.4828L16.386 24.0479C16.5033 23.9168 16.6653 23.8509 16.8279 23.8502C16.9687 23.8502 17.11 23.901 17.2232 24.0025C17.4668 24.2207 17.4874 24.5954 17.2692 24.839C17.2691 24.8389 14.2656 28.4916 13.9294 28.8272Z" fill="url(#paint7_linear_39_1590)"/>
<path d="M30.8002 24.6465C31.2788 23.5425 31.6842 22.383 31.9732 21.187H8.02539C8.31433 22.3829 8.71974 23.5425 9.19833 24.6465C10.0904 26.7031 10.7986 28.8379 11.2666 31.0303C11.7625 33.3545 12.6343 35.4134 13.7705 37.0348C13.8723 37.1801 14.0999 37.0742 14.0535 36.903C14.0455 36.8736 14.0375 36.8438 14.0295 36.8137C12.9943 32.9094 15.9601 29.0879 19.9994 29.0879C24.0386 29.0879 27.0044 32.9094 25.9692 36.8137C25.9612 36.8438 25.9532 36.8736 25.9452 36.903C25.8987 37.0742 26.1263 37.1801 26.2281 37.0348C27.3642 35.4133 28.2361 33.3545 28.7321 31.0303C29.2 28.8379 29.9081 26.7031 30.8002 24.6465Z" fill="url(#paint8_linear_39_1590)"/>
<path d="M20.5579 10.4701C19.7616 10.5613 18.9493 10.4583 18.1896 10.1585C17.3112 9.81128 16.3539 9.61983 15.3528 9.61709C10.9645 9.60681 7.47513 13.2759 7.55607 17.6636C7.60132 20.11 8.26077 22.4842 9.19819 24.6464C10.0903 26.703 10.7984 28.8378 11.2664 31.0302C11.7623 33.3544 12.6342 35.4132 13.7703 37.0347C13.8721 37.18 14.0998 37.0741 14.0533 36.9029C14.0453 36.8734 14.0373 36.8437 14.0294 36.8136C12.9942 32.9092 15.9599 29.0878 19.9992 29.0878C20.1879 29.0878 20.3743 29.0961 20.558 29.1125V10.4701H20.5579Z" fill="url(#paint9_linear_39_1590)"/>
<path d="M24.6454 9.61721C23.6442 9.61995 22.687 9.81141 21.8086 10.1586C20.6434 10.6184 19.3547 10.6184 18.1896 10.1586C17.3112 9.81141 16.354 9.61995 15.3528 9.61721C10.9645 9.60693 7.47513 13.276 7.55607 17.6637C7.58901 19.4425 7.9476 21.1825 8.5007 22.8312H31.4976C32.0506 21.1825 32.4092 19.4424 32.4422 17.6637C32.5231 13.2767 29.0336 9.60686 24.6454 9.61721Z" fill="url(#paint10_linear_39_1590)"/>
<path d="M24.6454 9.61721C23.6442 9.61995 22.687 9.81141 21.8086 10.1586C20.6434 10.6184 19.3547 10.6184 18.1896 10.1586C17.3112 9.81141 16.354 9.61995 15.3528 9.61721C10.9645 9.60693 7.47513 13.276 7.55607 17.6637C7.58901 19.4425 7.9476 21.1825 8.5007 22.8312H31.4976C32.0506 21.1825 32.4092 19.4424 32.4422 17.6637C32.5231 13.2767 29.0336 9.60686 24.6454 9.61721Z" fill="url(#paint11_linear_39_1590)"/>
<path d="M26.3938 36.5003C26.4072 36.4381 27.1633 32.83 25.9804 27.3411C25.0429 22.9906 22.6872 16.6624 16.8776 9.77141C16.385 9.67227 15.876 9.61862 15.3547 9.61721C10.9664 9.60693 7.47708 13.276 7.55802 17.6637C7.60335 20.1101 8.26273 22.4843 9.20014 24.6465C10.0922 26.7031 10.8004 28.8379 11.2684 31.0303C11.7643 33.3545 12.6361 35.4134 13.7723 37.0348C13.8741 37.1801 14.1017 37.0742 14.0553 36.903C14.0473 36.8735 14.0393 36.8438 14.0313 36.8137C12.9961 32.9094 15.9618 29.0879 20.0011 29.0879C24.0404 29.0879 27.0061 32.9094 25.9709 36.8137C25.9629 36.8438 25.9549 36.8736 25.9469 36.903C25.9005 37.0742 26.1281 37.1801 26.2299 37.0348C26.2877 36.9523 26.3444 36.8678 26.4008 36.783C26.3762 36.6936 26.3723 36.5971 26.3938 36.5003Z" fill="url(#paint12_linear_39_1590)"/>
<path d="M26.1753 8.31641C26.8437 8.72465 26.8343 9.69774 26.152 10.0822C25.2409 10.5955 24.1268 10.801 22.9891 10.5834C22.9754 10.5814 22.9623 10.5786 22.9493 10.5759C22.3434 10.4551 21.7175 10.6123 21.2056 11.0013C20.2202 11.7506 18.8958 12.093 17.5386 11.8337C16.6849 11.6704 15.9315 11.2908 15.3303 10.768C14.9405 10.429 14.4451 10.2554 13.936 10.2705C13.9326 10.2706 13.9291 10.2707 13.9256 10.2708C13.3738 10.2824 13.1197 9.58645 13.546 9.23586C13.6108 9.18261 13.6761 9.13006 13.742 9.07837C14.9844 8.10237 16.6523 7.83547 18.1237 8.41123C18.1316 8.41429 18.1394 8.41743 18.1474 8.42057C19.3125 8.88033 20.6012 8.88033 21.7664 8.42057C22.6448 8.07335 23.602 7.8819 24.6032 7.87915H24.6121C25.1557 7.87821 25.6913 8.02221 26.1557 8.30449C26.1622 8.30833 26.1688 8.31241 26.1753 8.31641Z" fill="url(#paint13_linear_39_1590)"/>
<path d="M40 38.3569V39.0212C40 39.5618 39.5618 40 39.0212 40H0.978824C0.438274 40 0 39.5618 0 39.0212V38.3569C0 34.4259 4.65333 31.24 10.3937 31.24H12.4835C13.5983 31.24 14.698 31.519 15.6674 32.0694C16.8969 32.7674 18.3898 33.1765 20 33.1765C21.6102 33.1765 23.1031 32.7674 24.3326 32.0694C25.3021 31.5191 26.4018 31.24 27.5166 31.24H29.6063C35.3467 31.24 40 34.4259 40 38.3569Z" fill="url(#paint14_linear_39_1590)"/>
<path d="M0 38.3564V39.0211C0 39.5617 0.438196 39.9999 0.978824 39.9999H39.0212C39.5617 39.9999 40 39.5617 40 39.0211V38.3564C40 36.4369 38.8898 34.6953 37.0856 33.4153H2.91443C1.1102 34.6953 0 36.437 0 38.3564Z" fill="url(#paint15_linear_39_1590)"/>
<path d="M40.0008 38.3569V39.0212C40.0008 39.5618 39.5626 40 39.022 40H16.7891V32.5961C17.7647 32.9686 18.8534 33.1765 20.0008 33.1765C21.611 33.1765 23.1039 32.7674 24.3335 32.0694C25.3029 31.5191 26.4026 31.24 27.5174 31.24H29.6071C35.3475 31.24 40.0008 34.4259 40.0008 38.3569Z" fill="url(#paint16_linear_39_1590)"/>
<path d="M40.0005 38.3567V39.0211C40.0005 39.5615 39.562 39.9999 39.0216 39.9999H25.8828V38.2203C26.733 38.1128 27.551 37.6995 28.1573 36.9811C29.3683 35.545 30.8216 33.6634 32.2169 31.4666C36.6938 32.2587 40.0005 35.043 40.0005 38.3567Z" fill="url(#paint17_linear_39_1590)"/>
<path d="M29.8306 38.04C29.6 38.2714 29.3247 38.4329 29.0329 38.5239C28.6988 38.629 28.4031 38.8431 28.2306 39.1482C27.9506 39.6447 27.2878 40 25.9607 40C23.6729 40 23.116 39.2125 23.1074 38.458C23.1035 38.1396 23.1992 37.84 23.367 37.5874C23.9811 38.0282 24.7066 38.2486 25.4329 38.2486C26.4384 38.2486 27.4447 37.8259 28.1568 36.9812C28.6266 36.4235 29.1333 35.7992 29.6588 35.1145C29.6862 35.1357 29.7137 35.1584 29.7404 35.182C30.5953 35.938 30.6258 37.2455 29.8306 38.04Z" fill="url(#paint18_linear_39_1590)"/>
<path d="M27.0977 35.6141C26.8295 36.1176 26.5393 36.5921 26.2295 37.0344C26.1276 37.1803 25.9001 37.0744 25.9464 36.9027C25.9542 36.8737 25.9621 36.8439 25.9699 36.8133C26.2374 35.807 26.2381 34.8062 26.0232 33.8752C26.0397 33.1788 26.0272 32.3568 25.9589 31.4266C25.8719 30.2321 25.693 28.8588 25.366 27.3411C24.2687 22.2517 21.2327 14.4564 12.9966 6.22033C12.7668 5.99053 12.7668 5.61798 12.9966 5.38817C13.2264 5.15837 13.5981 5.15837 13.8279 5.38817C17.5628 9.12308 20.5762 13.0878 22.7848 17.1733C24.5566 20.4509 25.817 23.8133 26.5315 27.167C26.8538 28.6799 27.0366 30.0509 27.1291 31.2517C27.2789 33.1811 27.1981 34.6729 27.0977 35.6141Z" fill="url(#paint19_linear_39_1590)"/>
<path d="M13.8284 5.3883C13.5986 5.15865 13.2262 5.15865 12.9965 5.3883C12.7668 5.6181 12.7668 5.9905 12.9965 6.22022C15.5178 8.74148 17.551 11.2212 19.1913 13.5947H20.6235C18.7365 10.7704 16.4621 8.02195 13.8284 5.3883Z" fill="url(#paint20_linear_39_1590)"/>
<path d="M11.8432 36.9815C13.265 38.6679 15.8602 38.673 17.2823 36.9868C18.7026 35.3029 21.2967 35.3029 22.7169 36.9868C24.139 38.673 26.7343 38.6679 28.1561 36.9815C29.3673 35.5449 30.8205 33.6638 32.2161 31.4663C31.382 31.3187 30.5073 31.24 29.6058 31.24H27.5161C26.4012 31.24 25.3016 31.519 24.3321 32.0694C23.1027 32.7674 21.6098 33.1765 19.9996 33.1765C18.3894 33.1765 16.8965 32.7674 15.667 32.0694C14.6975 31.5191 13.5978 31.24 12.483 31.24H10.3933C9.49183 31.24 8.61724 31.3187 7.7832 31.4663C9.17881 33.6638 10.632 35.5449 11.8432 36.9815Z" fill="url(#paint21_linear_39_1590)"/>
<path d="M27.5173 31.24C26.6722 31.24 25.8361 31.4007 25.0586 31.718C26.0529 33.1329 26.4609 34.9638 25.9705 36.8136C25.9625 36.8438 25.9545 36.8736 25.9465 36.903C25.9001 37.0742 26.1277 37.1801 26.2295 37.0347C27.3312 35.4624 28.1833 33.4781 28.6862 31.2401H27.5173V31.24Z" fill="url(#paint22_linear_39_1590)"/>
<path d="M12.4834 31.24H11.3145C11.8173 33.478 12.6694 35.4623 13.7712 37.0347C13.873 37.18 14.1006 37.0741 14.0541 36.9029C14.0461 36.8735 14.0381 36.8437 14.0301 36.8136C13.5397 34.9638 13.9477 33.1329 14.9421 31.7179C14.1646 31.4007 13.3283 31.24 12.4834 31.24Z" fill="url(#paint23_linear_39_1590)"/>
<path d="M33.8476 32.495C33.6183 32.2657 33.2466 32.2657 33.0173 32.495L32.4319 33.0804C32.2026 33.3097 32.2026 33.6814 32.4319 33.9107C32.6612 34.14 33.0328 34.14 33.2622 33.9107L33.8476 33.3253C34.0769 33.0959 34.0769 32.7243 33.8476 32.495Z" fill="url(#paint24_linear_39_1590)"/>
<path d="M35.868 38.7714L36.631 38.4501C36.9298 38.3242 37.07 37.98 36.9441 37.6811C36.8183 37.3823 36.474 37.2421 36.1752 37.368L35.4122 37.6893C35.1134 37.8152 34.9732 38.1594 35.0991 38.4582C35.2249 38.7571 35.5692 38.8973 35.868 38.7714Z" fill="url(#paint25_linear_39_1590)"/>
<path d="M27.6862 31.1609C27.9865 31.2832 28.329 31.1389 28.4514 30.8386L28.7636 30.0719C28.8859 29.7716 28.7417 29.429 28.4414 29.3067C28.141 29.1844 27.7985 29.3287 27.6762 29.629L27.3639 30.3957C27.2417 30.696 27.3859 31.0385 27.6862 31.1609Z" fill="url(#paint26_linear_39_1590)"/>
<path d="M25.3663 27.341C25.6933 28.8586 25.8722 30.2319 25.9592 31.4263C26.3421 31.3329 26.734 31.2756 27.1295 31.2525C27.1295 31.2522 27.1295 31.2519 27.1294 31.2516C27.0369 30.0508 26.8541 28.6799 26.5318 27.1669C26.1063 25.1699 25.4857 23.17 24.6805 21.1865H23.3984C24.3758 23.4989 24.987 25.5817 25.3663 27.341Z" fill="url(#paint27_linear_39_1590)"/>
<path d="M16.3865 8.11304C15.9268 8.12739 15.4707 8.21312 15.0352 8.36668C16.1112 9.55837 17.0825 10.7364 17.9582 11.8936C18.4452 11.9429 18.9234 11.9163 19.3791 11.8228C18.4578 10.5681 17.4594 9.33029 16.3865 8.11304Z" fill="url(#paint28_linear_39_1590)"/>
<path d="M11.9085 6.76081L11.3242 6.17658L13.9134 3.5874L14.4976 4.17164C15.0366 4.71062 15.0366 5.58442 14.4976 6.12332L13.8601 6.76081C13.3212 7.29979 12.4474 7.29979 11.9085 6.76081Z" fill="url(#paint29_linear_39_1590)"/>
<path d="M11.9085 6.76081L11.3242 6.17658L13.9134 3.5874L14.4976 4.17164C15.0366 4.71062 15.0366 5.58442 14.4976 6.12332L13.8601 6.76081C13.3212 7.29979 12.4474 7.29979 11.9085 6.76081Z" fill="url(#paint30_linear_39_1590)"/>
<path d="M9.53374 7.18372L8.60621 6.25619C7.44637 5.09635 7.44637 3.21588 8.60621 2.05596L9.79241 0.86976C10.9523 -0.290083 12.8327 -0.290083 13.9926 0.86976L14.9202 1.79729C15.4573 2.33439 15.4573 3.20513 14.9202 3.74215L11.4787 7.18364C10.9415 7.72082 10.0708 7.72082 9.53374 7.18372Z" fill="url(#paint31_linear_39_1590)"/>
<path d="M9.92731 0.743774C9.88143 0.784323 9.83625 0.82597 9.79241 0.869814L8.60621 2.05601C7.44637 3.21585 7.44637 5.09632 8.60621 6.25625L9.53374 7.18378C10.0708 7.72087 10.9416 7.72087 11.4786 7.18378L13.7462 4.91617L9.92731 0.743774Z" fill="url(#paint32_linear_39_1590)"/>
<path d="M13.4539 0.444146C12.3086 -0.265422 10.7859 -0.124089 9.79191 0.869872L8.60571 2.05607C7.61175 3.05003 7.47042 4.57277 8.17999 5.71811L13.4539 0.444146Z" fill="url(#paint33_linear_39_1590)"/>
</g>
<defs>
<linearGradient id="paint0_linear_39_1590" x1="8.77311" y1="8.22591" x2="35.5083" y2="34.9612" gradientUnits="userSpaceOnUse">
<stop stop-color="#EAF9FA"/>
<stop offset="1" stop-color="#B3DAFE"/>
</linearGradient>
<linearGradient id="paint1_linear_39_1590" x1="28.5753" y1="22.221" x2="34.8199" y2="24.4854" gradientUnits="userSpaceOnUse">
<stop stop-color="#B3DAFE" stop-opacity="0"/>
<stop offset="0.2438" stop-color="#ACD5FA" stop-opacity="0.244"/>
<stop offset="0.589" stop-color="#9AC5F0" stop-opacity="0.589"/>
<stop offset="0.9932" stop-color="#7CACDF" stop-opacity="0.993"/>
<stop offset="1" stop-color="#7BACDF"/>
</linearGradient>
<linearGradient id="paint2_linear_39_1590" x1="16.1982" y1="11.3311" x2="22.5825" y2="4.94673" gradientUnits="userSpaceOnUse">
<stop stop-color="#B3DAFE" stop-opacity="0"/>
<stop offset="0.2438" stop-color="#ACD5FA" stop-opacity="0.244"/>
<stop offset="0.589" stop-color="#9AC5F0" stop-opacity="0.589"/>
<stop offset="0.9932" stop-color="#7CACDF" stop-opacity="0.993"/>
<stop offset="1" stop-color="#7BACDF"/>
</linearGradient>
<linearGradient id="paint3_linear_39_1590" x1="11.06" y1="12.2179" x2="13.2561" y2="6.2049" gradientUnits="userSpaceOnUse">
<stop stop-color="#B3DAFE" stop-opacity="0"/>
<stop offset="0.2438" stop-color="#ACD5FA" stop-opacity="0.244"/>
<stop offset="0.589" stop-color="#9AC5F0" stop-opacity="0.589"/>
<stop offset="0.9932" stop-color="#7CACDF" stop-opacity="0.993"/>
<stop offset="1" stop-color="#7BACDF"/>
</linearGradient>
<linearGradient id="paint4_linear_39_1590" x1="19.9999" y1="29.1677" x2="19.9999" y2="33.4702" gradientUnits="userSpaceOnUse">
<stop stop-color="#B3DAFE" stop-opacity="0"/>
<stop offset="0.2438" stop-color="#ACD5FA" stop-opacity="0.244"/>
<stop offset="0.589" stop-color="#9AC5F0" stop-opacity="0.589"/>
<stop offset="0.9932" stop-color="#7CACDF" stop-opacity="0.993"/>
<stop offset="1" stop-color="#7BACDF"/>
</linearGradient>
<linearGradient id="paint5_linear_39_1590" x1="10.711" y1="11.5768" x2="30.4738" y2="34.2216" gradientUnits="userSpaceOnUse">
<stop stop-color="#FEDBBD"/>
<stop offset="1" stop-color="#FD8087"/>
</linearGradient>
<linearGradient id="paint6_linear_39_1590" x1="16.764" y1="20.1966" x2="34.1938" y2="27.2302" gradientUnits="userSpaceOnUse">
<stop stop-color="#FD8087" stop-opacity="0"/>
<stop offset="1" stop-color="#FD8087"/>
</linearGradient>
<linearGradient id="paint7_linear_39_1590" x1="2.21093" y1="18.9907" x2="24.299" y2="27.1348" gradientUnits="userSpaceOnUse">
<stop stop-color="#FD8087" stop-opacity="0"/>
<stop offset="1" stop-color="#FD8087"/>
</linearGradient>
<linearGradient id="paint8_linear_39_1590" x1="19.9993" y1="27.8868" x2="19.9993" y2="31.2721" gradientUnits="userSpaceOnUse">
<stop stop-color="#FD8087" stop-opacity="0"/>
<stop offset="1" stop-color="#FD8087"/>
</linearGradient>
<linearGradient id="paint9_linear_39_1590" x1="13.2967" y1="23.5689" x2="8.56211" y2="24.7011" gradientUnits="userSpaceOnUse">
<stop stop-color="#FD8087" stop-opacity="0"/>
<stop offset="1" stop-color="#FD8087"/>
</linearGradient>
<linearGradient id="paint10_linear_39_1590" x1="19.999" y1="14.2658" x2="19.999" y2="9.09007" gradientUnits="userSpaceOnUse">
<stop stop-color="#FD8087" stop-opacity="0"/>
<stop offset="1" stop-color="#FD8087"/>
</linearGradient>
<linearGradient id="paint11_linear_39_1590" x1="18.9263" y1="15.9153" x2="16.3187" y2="10.1969" gradientUnits="userSpaceOnUse">
<stop stop-color="#FD8087" stop-opacity="0"/>
<stop offset="1" stop-color="#FD8087"/>
</linearGradient>
<linearGradient id="paint12_linear_39_1590" x1="18.9371" y1="23.8069" x2="23.7475" y2="21.4016" gradientUnits="userSpaceOnUse">
<stop stop-color="#FD8087" stop-opacity="0"/>
<stop offset="1" stop-color="#FD8087"/>
</linearGradient>
<linearGradient id="paint13_linear_39_1590" x1="17.5168" y1="5.75351" x2="24.3481" y2="15.7035" gradientUnits="userSpaceOnUse">
<stop stop-color="#5A5A5A"/>
<stop offset="1" stop-color="#433F43"/>
</linearGradient>
<linearGradient id="paint14_linear_39_1590" x1="18.4758" y1="30.3881" x2="21.1937" y2="44.8606" gradientUnits="userSpaceOnUse">
<stop stop-color="#FEDBBD"/>
<stop offset="1" stop-color="#FD8087"/>
</linearGradient>
<linearGradient id="paint15_linear_39_1590" x1="20" y1="36.6187" x2="20" y2="40.5343" gradientUnits="userSpaceOnUse">
<stop stop-color="#FD8087" stop-opacity="0"/>
<stop offset="1" stop-color="#FD8087"/>
</linearGradient>
<linearGradient id="paint16_linear_39_1590" x1="27.3213" y1="35.62" x2="38.6254" y2="35.62" gradientUnits="userSpaceOnUse">
<stop stop-color="#FD8087" stop-opacity="0"/>
<stop offset="1" stop-color="#FD8087"/>
</linearGradient>
<linearGradient id="paint17_linear_39_1590" x1="34.1365" y1="38.5895" x2="29.2738" y2="35.1385" gradientUnits="userSpaceOnUse">
<stop stop-color="#FD8087" stop-opacity="0"/>
<stop offset="1" stop-color="#FD8087"/>
</linearGradient>
<linearGradient id="paint18_linear_39_1590" x1="26.2098" y1="36.4521" x2="28.2098" y2="40.1776" gradientUnits="userSpaceOnUse">
<stop stop-color="#FEF0AE"/>
<stop offset="1" stop-color="#FAC600"/>
</linearGradient>
<linearGradient id="paint19_linear_39_1590" x1="10.7479" y1="6.9088" x2="29.6891" y2="34.6894" gradientUnits="userSpaceOnUse">
<stop stop-color="#EAF9FA"/>
<stop offset="1" stop-color="#B3DAFE"/>
</linearGradient>
<linearGradient id="paint20_linear_39_1590" x1="15.5879" y1="8.56963" x2="13.2492" y2="6.23097" gradientUnits="userSpaceOnUse">
<stop stop-color="#B3DAFE" stop-opacity="0"/>
<stop offset="0.2438" stop-color="#ACD5FA" stop-opacity="0.244"/>
<stop offset="0.589" stop-color="#9AC5F0" stop-opacity="0.589"/>
<stop offset="0.9932" stop-color="#7CACDF" stop-opacity="0.993"/>
<stop offset="1" stop-color="#7BACDF"/>
</linearGradient>
<linearGradient id="paint21_linear_39_1590" x1="19.9997" y1="27.0849" x2="19.9997" y2="38.2315" gradientUnits="userSpaceOnUse">
<stop stop-color="#B3DAFE" stop-opacity="0"/>
<stop offset="0.2438" stop-color="#ACD5FA" stop-opacity="0.244"/>
<stop offset="0.589" stop-color="#9AC5F0" stop-opacity="0.589"/>
<stop offset="0.9932" stop-color="#7CACDF" stop-opacity="0.993"/>
<stop offset="1" stop-color="#7BACDF"/>
</linearGradient>
<linearGradient id="paint22_linear_39_1590" x1="26.8724" y1="30.7974" x2="26.8724" y2="37.2886" gradientUnits="userSpaceOnUse">
<stop stop-color="#FD8087" stop-opacity="0"/>
<stop offset="1" stop-color="#FD8087"/>
</linearGradient>
<linearGradient id="paint23_linear_39_1590" x1="13.1283" y1="30.7974" x2="13.1283" y2="37.2886" gradientUnits="userSpaceOnUse">
<stop stop-color="#FD8087" stop-opacity="0"/>
<stop offset="1" stop-color="#FD8087"/>
</linearGradient>
<linearGradient id="paint24_linear_39_1590" x1="32.1868" y1="31.7997" x2="34.4005" y2="35.0465" gradientUnits="userSpaceOnUse">
<stop stop-color="#F28CC4"/>
<stop offset="1" stop-color="#E41F2D"/>
</linearGradient>
<linearGradient id="paint25_linear_39_1590" x1="35.0607" y1="36.6549" x2="37.2917" y2="39.9271" gradientUnits="userSpaceOnUse">
<stop stop-color="#F28CC4"/>
<stop offset="1" stop-color="#E41F2D"/>
</linearGradient>
<linearGradient id="paint26_linear_39_1590" x1="26.8937" y1="28.5116" x2="29.6135" y2="32.5005" gradientUnits="userSpaceOnUse">
<stop stop-color="#F28CC4"/>
<stop offset="1" stop-color="#E41F2D"/>
</linearGradient>
<linearGradient id="paint27_linear_39_1590" x1="25.2257" y1="25.7886" x2="25.9054" y2="33.1089" gradientUnits="userSpaceOnUse">
<stop stop-color="#FD8087" stop-opacity="0"/>
<stop offset="1" stop-color="#FD8087"/>
</linearGradient>
<linearGradient id="paint28_linear_39_1590" x1="16.9723" y1="9.255" x2="18.1488" y2="13.4641" gradientUnits="userSpaceOnUse">
<stop stop-color="#1A1A1A" stop-opacity="0"/>
<stop offset="1" stop-color="#1A1A1A"/>
</linearGradient>
<linearGradient id="paint29_linear_39_1590" x1="15.0616" y1="5.4753" x2="11.9917" y2="5.2982" gradientUnits="userSpaceOnUse">
<stop stop-color="#C8EFFE"/>
<stop offset="1" stop-color="#62DBFB"/>
</linearGradient>
<linearGradient id="paint30_linear_39_1590" x1="15.0616" y1="5.4753" x2="11.9917" y2="5.2982" gradientUnits="userSpaceOnUse">
<stop stop-color="#07B2CD" stop-opacity="0"/>
<stop offset="0.3759" stop-color="#06AEC9" stop-opacity="0.376"/>
<stop offset="0.7648" stop-color="#04A3BD" stop-opacity="0.765"/>
<stop offset="1" stop-color="#0199B1"/>
</linearGradient>
<linearGradient id="paint31_linear_39_1590" x1="13.303" y1="1.18414" x2="9.14918" y2="5.8014" gradientUnits="userSpaceOnUse">
<stop stop-color="#C8EFFE"/>
<stop offset="1" stop-color="#62DBFB"/>
</linearGradient>
<linearGradient id="paint32_linear_39_1590" x1="10.5884" y1="4.16666" x2="8.56206" y2="6.54511" gradientUnits="userSpaceOnUse">
<stop stop-color="#07B2CD" stop-opacity="0"/>
<stop offset="0.3759" stop-color="#06AEC9" stop-opacity="0.376"/>
<stop offset="0.7648" stop-color="#04A3BD" stop-opacity="0.765"/>
<stop offset="1" stop-color="#0199B1"/>
</linearGradient>
<linearGradient id="paint33_linear_39_1590" x1="10.941" y1="-1.95771" x2="10.2119" y2="6.823" gradientUnits="userSpaceOnUse">
<stop stop-color="#07B2CD" stop-opacity="0"/>
<stop offset="0.3759" stop-color="#06AEC9" stop-opacity="0.376"/>
<stop offset="0.7648" stop-color="#04A3BD" stop-opacity="0.765"/>
<stop offset="1" stop-color="#0199B1"/>
</linearGradient>
<clipPath id="clip0_39_1590">
<rect width="40" height="40" fill="white"/>
</clipPath>
</defs>
</svg>
