<svg width="245" height="100" viewBox="0 0 245 100" fill="none" xmlns="http://www.w3.org/2000/svg">
<path d="M0 98.9075C0 98.9075 51.4991 101.027 55.839 99.3617C60.179 97.6964 35.7037 92.9527 47.7647 92.8013C59.8257 92.6499 82.5852 92.776 83.2286 91.0729C83.8721 89.3697 84.5029 82.2794 83.9478 81.7748C83.3926 81.2702 83.0142 83.4401 83.5945 83.5411C84.1748 83.642 87.7704 82.5191 87.8083 82.1785C87.8462 81.8379 86.0672 62.4216 85.8654 61.3367C85.6635 60.2517 78.3967 61.0339 78.0182 60.5544C77.6396 60.075 85.9537 59.1288 86.6728 59.9615C87.3919 60.7942 88.7545 80.0212 88.6788 80.324C88.603 80.6267 61.7685 82.2542 61.3901 82.1785C61.0116 82.1029 58.5514 62.4974 58.0216 62.2324C57.4917 61.9675 59.6869 81.2323 59.6491 82.1785C59.6112 83.1247 42.3145 84.563 41.8982 84.2602C41.4819 83.9574 38.9839 51.105 39.4759 50.5751C39.9679 50.0452 51.7766 47.1309 52.0037 47.2066C52.2308 47.2823 53.442 60.0372 54.2746 60.6428C55.1073 61.2484 52.7228 46.9795 53.177 46.5253C53.6312 46.0712 74.9399 45.1628 75.2805 45.3142C75.6212 45.4656 77.3243 59.583 76.7187 59.9994C76.1132 60.4157 59.1949 61.2484 58.0595 61.3241C56.924 61.3998 40.4978 65.4117 40.1193 65.2982C39.7408 65.1846 38.6811 49.9822 38.7063 49.4523C38.7316 48.9224 41.5575 48.5187 41.9613 47.9888C42.365 47.459 40.4474 33.1522 40.4474 32.6729C40.4474 32.1934 41.1791 32.1177 41.3809 32.1682C41.5828 32.2187 42.7687 47.4085 43.3743 47.5347C43.9798 47.6609 48.5973 46.5759 48.9506 45.9703C49.3039 45.3647 47.6133 32.8748 47.5881 32.3954C47.5628 31.9159 48.0927 32.1178 48.5469 32.3954C49.0011 32.6729 49.5814 45.4468 50.3762 45.6928C51.1711 45.9388 55.7885 45.2954 55.9968 44.9547C56.2049 44.6141 54.7288 32.3071 54.9433 31.8907C55.1578 31.4744 55.675 31.7267 55.8138 31.9538C55.9526 32.1809 56.8736 44.8601 57.5801 45.1377C58.2866 45.4152 62.6265 45.3395 63.0302 44.8096C63.4339 44.2798 62.1723 29.7712 61.3397 29.317C60.507 28.8629 36.1074 29.9289 35.7668 30.0425C35.4262 30.156 35.8046 31.0833 36.0885 31.1401C36.3723 31.1969 61.1631 30.7994 61.4091 30.2506C61.6551 29.7018 60.5323 16.0701 59.5734 15.5654C58.6146 15.0608 34.5178 16.0196 34.3475 16.0953C34.1772 16.171 33.9879 17.2308 34.8963 17.2686C35.8047 17.3065 59.4599 17.0037 59.9141 16.3224C60.3683 15.6412 59.9015 7.28925 55.7886 2.82315C51.6758 -1.64295 46.8816 0.400865 44.6865 0.905497C42.4913 1.41013 22.7849 2.26803 22.4064 1.78864C22.0279 1.3092 21.8008 -0.179494 24.9044 0.161149C28.0079 0.501793 31.3134 3.98383 32.4236 9.68633C33.5338 15.3888 38.0756 68.0233 38.2775 71.0764C38.4793 74.1296 40.3087 86.8151 40.1384 87.5531C39.9681 88.2912 38.5109 88.2533 38.4731 86.9854C38.4352 85.7174 36.9212 78.5641 35.6533 77.4097C34.3854 76.2553 31.5657 76.3878 29.5029 77.2205C27.4402 78.0531 27.6547 87.4269 29.3452 89.067C31.0358 90.7071 33.1301 87.7549 32.8273 84.5378C32.5245 81.3207 30.9853 78.9993 29.0172 80.0338C27.0491 81.0683 27.005 90.051 30.4303 91.2433C33.8555 92.4355 35.0288 87.7423 33.6284 81.7811C32.228 75.82 28.235 77.2772 27.1753 79.9077C26.1155 82.5381 26.6265 90.7512 30.1842 92.303C33.742 93.8548 38.3784 90.9594 38.8894 87.6666C39.4003 84.3738 37.9495 80.16 37.5458 78.9236C37.1421 77.6872 37.3187 67.1528 38.2649 66.0551C39.2111 64.9575 40.3844 84.9415 40.7818 85.3578C41.1792 85.7742 52.4202 84.2035 53.0258 84.5062C53.6314 84.809 41.3685 86.5311 41.1225 86.7015C40.8764 86.8718 41.747 88.4425 42.2768 88.7264C42.8067 89.0102 64.1532 86.7204 64.6831 86.1905C65.213 85.6607 55.0065 86.8971 54.5776 86.4176C54.1486 85.9382 53.4169 84.4747 54.729 84.2224C56.0411 83.9701 81.9546 81.901 82.2321 82.0777C82.5097 82.2543 82.2826 83.2383 81.9798 83.4402C81.677 83.642 66.0583 86.1779 65.7681 86.4681C65.4779 86.7582 66.2097 89.7987 70.2847 89.8492C74.3597 89.8996 75.8358 86.0013 75.7853 85.5849C75.7348 85.1686 75.0662 89.6473 74.612 90.1772C74.1578 90.7071 67.0676 91.073 65.3266 91.073C63.5855 91.073 72.215 94.2103 78.8928 94.2103C78.8928 94.2103 102.581 94.2103 103.475 94.2103C104.369 94.2103 104.76 62.6264 105.207 62.347C105.653 62.0677 136.424 60.6896 136.126 60.9379C135.828 61.1862 106.802 62.8995 107.025 63.1478C107.249 63.3961 131.409 68.2876 132.302 69.0325C133.196 69.7774 132.153 97.0409 131.26 97.7858C130.366 98.5307 104.964 93.5399 106.529 93.1674C108.093 92.7949 131.036 97.9371 133.196 97.8615C135.357 97.7858 170.218 94.1358 170.888 93.0184C171.559 91.901 172.527 66.7978 171.931 65.159C171.335 63.5202 133.587 67.3751 133.755 68.1014C133.923 68.8277 173.496 65.3825 173.719 64.7493C173.943 64.1161 138.895 63.036 138.56 62.9616C138.224 62.8871 137.852 43.8548 138.262 43.5196C138.671 43.1844 174.538 42.9609 175.6 43.0168C176.661 43.0726 174.65 65.0845 175.768 65.1218C176.885 65.1591 183.85 62.7753 183.999 62.4029C184.148 62.0304 183.254 43.6515 182.919 43.0082C182.583 42.365 176.351 42.7079 176.674 43.0082C176.997 43.3085 180.293 43.1844 180.405 43.7431C180.516 44.3018 181.317 62.5271 181.168 62.7505C181.019 62.974 173.868 65.6557 174.067 65.9288C174.265 66.2019 196.96 63.7065 197.407 64.079C197.854 64.4514 197.928 88.698 197.034 90.1878C196.141 91.6776 173.272 93.3909 173.57 92.795C173.868 92.199 216.923 88.1766 217.147 87.9531C217.37 87.7296 216.16 63.2409 215.992 62.4029C215.825 61.5649 193.142 63.1292 192.379 63.2595C191.615 63.3899 184.706 61.6952 185.023 62.1608C185.339 62.6264 191.429 64.2465 191.82 62.5333C192.211 60.82 191.075 27.3552 191.448 26.7966C191.82 26.2379 213.534 28.8451 213.832 29.2175C214.13 29.5899 216.178 59.684 215.508 60.4662C214.838 61.2484 213.065 30.3558 212.901 29.6644C212.737 28.973 191.597 27.0945 190.107 27.0945C188.617 27.0945 161.763 31.1915 160.832 31.6756C160.175 32.0171 159.278 37.0719 160.079 39.946C161.121 43.6868 160.629 29.9478 162.446 28.888C164.262 27.8283 189.318 24.2705 191.21 24.7247C193.103 25.1789 214.071 26.6171 214.979 27.0713C215.887 27.5255 218.688 46.1469 221.565 45.39C224.441 44.633 230.648 26.2387 232.844 34.0354C235.039 41.8322 234.282 54.5493 244.122 54.3979" stroke="#067A87" stroke-width="1.5" stroke-miterlimit="10"/>
</svg>
