<svg width="20" height="20" viewBox="0 0 20 20" fill="none" xmlns="http://www.w3.org/2000/svg">
<g clip-path="url(#clip0_2035_1465)">
<path d="M3.33337 6.66663H16.6667" stroke="#4D4D4D" stroke-width="1.5" stroke-linecap="round" stroke-linejoin="round"/>
<path d="M10.4167 16.6667H5.00004C4.55801 16.6667 4.13409 16.4911 3.82153 16.1786C3.50897 15.866 3.33337 15.4421 3.33337 15V5.00004C3.33337 4.55801 3.50897 4.13409 3.82153 3.82153C4.13409 3.50897 4.55801 3.33337 5.00004 3.33337H15C15.4421 3.33337 15.866 3.50897 16.1786 3.82153C16.4911 4.13409 16.6667 4.55801 16.6667 5.00004V10.8334" stroke="#4D4D4D" stroke-width="1.5" stroke-linecap="round" stroke-linejoin="round"/>
<path d="M6.66663 3.33337V6.66671" stroke="#4D4D4D" stroke-width="1.5" stroke-linecap="round" stroke-linejoin="round"/>
<path d="M13.3334 18.3333L17.5 14.1666" stroke="#4D4D4D" stroke-width="1.5" stroke-linecap="round" stroke-linejoin="round"/>
<path d="M17.5 17.9166V14.1666H13.75" stroke="#4D4D4D" stroke-width="1.5" stroke-linecap="round" stroke-linejoin="round"/>
</g>
<defs>
<clipPath id="clip0_2035_1465">
<rect width="20" height="20" fill="white"/>
</clipPath>
</defs>
</svg>
