<svg width="40" height="40" viewBox="0 0 40 40" fill="none" xmlns="http://www.w3.org/2000/svg">
<g clip-path="url(#clip0_39_1698)">
<path d="M22.7174 36.9871C24.1395 38.6733 26.7348 38.6682 28.1566 36.9817C31.7077 32.7697 37.3416 24.7461 37.4965 16.0879C37.6068 9.92509 32.6977 4.76995 26.5338 4.7847C25.1255 4.78807 23.7798 5.05764 22.5442 5.54564C20.9099 6.19113 19.0904 6.19113 17.456 5.54564C16.2204 5.05764 14.8747 4.78807 13.4664 4.7847C7.3026 4.76995 2.3935 9.92501 2.50378 16.0879C2.65868 24.7461 8.29256 32.7697 11.8437 36.9817C13.2655 38.6682 15.8607 38.6733 17.2828 36.9871C18.703 35.3031 21.2972 35.3031 22.7174 36.9871Z" fill="url(#paint0_linear_39_1698)"/>
<path d="M26.5341 4.78446C25.1257 4.78783 23.78 5.0574 22.5444 5.5454C22.2065 5.67889 21.8603 5.78312 21.5098 5.8614V36.0594C21.9591 36.2697 22.373 36.5783 22.7176 36.9868C23.2922 37.668 24.0582 38.0728 24.861 38.2027H26.0057C26.8113 38.0722 27.5804 37.665 28.1567 36.9815C31.7079 32.7695 37.3417 24.7459 37.4967 16.0877C37.607 9.92477 32.6979 4.76971 26.5341 4.78446Z" fill="url(#paint1_linear_39_1698)"/>
<path d="M22.2297 5.66163C20.6781 6.18846 18.9863 6.14971 17.4562 5.5454C16.2203 5.05732 14.8748 4.78775 13.4666 4.78446C7.30292 4.76955 2.39327 9.92493 2.50378 16.0877C2.54668 18.4612 3.00174 20.7879 3.71163 23.0008H18.3086C16.6028 21.0682 15.5682 18.5297 15.5682 15.7497C15.5681 11.2218 18.3127 7.33442 22.2297 5.66163Z" fill="url(#paint2_linear_39_1698)"/>
<path d="M15.5681 15.7498C15.5681 13.5546 16.2147 11.511 17.3257 9.79624L12.3672 4.83765C6.72966 5.39498 2.39994 10.2962 2.50378 16.0878C2.52559 17.2936 2.65421 18.4874 2.8681 19.6602H16.2864C15.8225 18.4456 15.5681 17.1275 15.5681 15.7498Z" fill="url(#paint3_linear_39_1698)"/>
<path d="M3.19531 21.187C4.83155 27.8064 9.00331 33.6131 11.8434 36.9816C13.2652 38.668 15.8604 38.6731 17.2825 36.9869C18.7028 35.303 21.2969 35.303 22.7171 36.9869C24.1392 38.6731 26.7344 38.668 28.1563 36.9816C30.9963 33.613 35.1681 27.8063 36.8043 21.187H3.19531Z" fill="url(#paint4_linear_39_1698)"/>
<path d="M32.4423 17.6637C32.3971 20.1101 31.7376 22.4843 30.8002 24.6465C29.9081 26.7031 29.2 28.8379 28.732 31.0303C28.2361 33.3545 27.3642 35.4134 26.2281 37.0348C26.1263 37.1801 25.8987 37.0742 25.9451 36.903C25.9531 36.8735 25.9611 36.8438 25.969 36.8137C27.0042 32.9094 24.0385 29.0879 19.9992 29.0879C15.9599 29.0879 12.9942 32.9094 14.0294 36.8137C14.0374 36.8438 14.0454 36.8736 14.0533 36.903C14.0998 37.0742 13.8721 37.1801 13.7703 37.0348C12.6343 35.4133 11.7623 33.3545 11.2664 31.0303C10.7984 28.8378 10.0903 26.7031 9.19819 24.6465C8.26085 22.4843 7.6014 20.11 7.55607 17.6637C7.47513 13.2761 10.9645 9.60693 15.3528 9.61721C16.354 9.61995 17.3112 9.81141 18.1896 10.1586C19.3547 10.6184 20.6434 10.6184 21.8086 10.1586C22.687 9.81141 23.6442 9.61995 24.6454 9.61721C29.0339 9.60693 32.5233 13.2768 32.4423 17.6637Z" fill="url(#paint5_linear_39_1698)"/>
<path d="M26.8924 21.1869C26.6433 21.5306 26.5095 21.9431 26.5088 22.3761C26.5095 22.7802 26.6262 23.1659 26.8437 23.4953L28.4378 21.9012C28.5531 21.7859 28.7047 21.7283 28.8564 21.7283C29.0039 21.7283 29.1501 21.7825 29.2647 21.891C29.5069 22.1215 29.4946 22.5215 29.2578 22.7576L26.9075 25.1086C26.106 25.9094 26.1273 27.1988 26.9219 28.0051C27.521 28.6117 27.851 29.4139 27.8504 30.2675C27.8504 31.128 27.5155 31.9371 26.9069 32.5457L25.9297 33.5222C25.8082 33.1091 25.6436 32.7117 25.4404 32.3364L26.069 31.7078C26.4533 31.3229 26.6653 30.8117 26.6653 30.2674C26.6653 29.7232 26.4532 29.2121 26.069 28.8271C25.7327 28.4916 22.7292 24.8389 22.7292 24.8389C22.511 24.5953 22.5316 24.2206 22.7752 24.0024C22.8884 23.9008 23.0298 23.8501 23.1705 23.8501C23.3331 23.8508 23.495 23.9167 23.6124 24.0477L24.8976 25.4826C25.0294 25.6288 25.2675 25.5835 25.3375 25.4003C25.4822 25.0187 25.7025 24.6599 25.9969 24.3462C25.5611 23.7842 25.3237 23.0987 25.3237 22.3761C25.3237 21.9623 25.4006 21.5602 25.5495 21.187C25.7066 20.7903 25.944 20.4259 26.2521 20.1137C27.0474 19.3074 27.068 18.018 26.2672 17.2172L23.9162 14.8662C23.6794 14.6302 23.6671 14.2302 23.9093 13.9996C24.0239 13.8912 24.1701 13.8369 24.3176 13.8369C24.4693 13.8369 24.6209 13.8946 24.7362 14.0099L27.1057 16.3786C27.4364 16.7101 27.68 17.0964 27.8365 17.5088C27.9065 17.6921 28.1446 17.7373 28.2764 17.5912L29.5623 16.1563C29.679 16.0252 29.8409 15.9593 30.0036 15.9586C30.1443 15.9586 30.2863 16.0094 30.3989 16.111C30.6425 16.3291 30.663 16.7038 30.4448 16.9474C30.4448 16.9474 27.4413 20.6001 27.1058 20.9357C27.0277 21.0146 26.9563 21.0984 26.8924 21.1869Z" fill="url(#paint6_linear_39_1698)"/>
<path d="M13.9294 28.827C13.545 29.212 13.333 29.7232 13.333 30.2673C13.333 30.8115 13.545 31.3227 13.9294 31.7077L14.5579 32.3363C14.3548 32.7117 14.1901 33.109 14.0687 33.5221L13.0915 32.5456C12.4828 31.937 12.1479 31.1279 12.1479 30.2674C12.1472 29.4138 12.4774 28.6116 13.0764 28.005C13.8711 27.1987 13.8923 25.9093 13.0908 25.1085L10.7406 22.7575C10.5038 22.5215 10.4915 22.1215 10.7337 21.8909C10.8483 21.7825 10.9945 21.7282 11.142 21.7282C11.2937 21.7282 11.4453 21.7859 11.5606 21.9012L13.1546 23.4952C13.3721 23.1658 13.4888 22.7801 13.4895 22.376C13.4888 21.943 13.355 21.5306 13.1059 21.1868C13.0421 21.0982 12.9707 21.0146 12.8925 20.9357C12.557 20.6001 9.55344 16.9474 9.55344 16.9474C9.33524 16.7038 9.35579 16.3291 9.5994 16.111C9.71195 16.0094 9.85399 15.9586 9.99469 15.9586C10.1574 15.9593 10.3192 16.0252 10.4359 16.1563L11.7219 17.5912C11.8537 17.7374 12.0918 17.6921 12.1618 17.5088C12.3182 17.0964 12.5618 16.7101 12.8926 16.3786L15.2621 14.0099C15.3774 13.8946 15.529 13.8369 15.6807 13.8369C15.8282 13.8369 15.9744 13.8911 16.089 13.9996C16.3312 14.2302 16.3188 14.6302 16.0821 14.8662L13.7311 17.2172C12.9303 18.018 12.9508 19.3074 13.7462 20.1137C14.0543 20.4259 14.2918 20.7903 14.4489 21.187C14.5978 21.5602 14.6746 21.9624 14.6746 22.3761C14.6746 23.0987 14.4372 23.7842 14.0014 24.3462C14.2958 24.6598 14.5161 25.0187 14.6609 25.4003C14.7308 25.5835 14.969 25.6288 15.1007 25.4826L16.386 24.0477C16.5033 23.9167 16.6653 23.8508 16.8279 23.8501C16.9687 23.8501 17.11 23.9008 17.2232 24.0024C17.4668 24.2206 17.4874 24.5953 17.2692 24.8389C17.2691 24.8388 14.2656 28.4915 13.9294 28.827Z" fill="url(#paint7_linear_39_1698)"/>
<path d="M30.8002 24.6465C31.2788 23.5425 31.6842 22.383 31.9732 21.187H8.02539C8.31433 22.3829 8.71974 23.5425 9.19833 24.6465C10.0904 26.7031 10.7986 28.8379 11.2666 31.0303C11.7625 33.3545 12.6343 35.4134 13.7705 37.0348C13.8723 37.1801 14.0999 37.0742 14.0535 36.903C14.0455 36.8736 14.0375 36.8438 14.0295 36.8137C12.9943 32.9094 15.9601 29.0879 19.9994 29.0879C24.0386 29.0879 27.0044 32.9094 25.9692 36.8137C25.9612 36.8438 25.9532 36.8736 25.9452 36.903C25.8987 37.0742 26.1263 37.1801 26.2281 37.0348C27.3642 35.4133 28.2361 33.3545 28.7321 31.0303C29.2 28.8379 29.9081 26.7031 30.8002 24.6465Z" fill="url(#paint8_linear_39_1698)"/>
<path d="M20.5579 10.4702C19.7616 10.5614 18.9493 10.4585 18.1896 10.1586C17.3112 9.81141 16.3539 9.61995 15.3528 9.61721C10.9645 9.60693 7.47513 13.276 7.55607 17.6637C7.60132 20.1101 8.26077 22.4843 9.19819 24.6465C10.0903 26.7031 10.7984 28.8379 11.2664 31.0303C11.7623 33.3545 12.6342 35.4134 13.7703 37.0348C13.8721 37.1801 14.0998 37.0742 14.0533 36.903C14.0453 36.8735 14.0373 36.8438 14.0294 36.8137C12.9942 32.9094 15.9599 29.0879 19.9992 29.0879C20.1879 29.0879 20.3743 29.0963 20.558 29.1126V10.4702H20.5579Z" fill="url(#paint9_linear_39_1698)"/>
<path d="M24.6454 9.61721C23.6442 9.61995 22.687 9.81141 21.8086 10.1586C20.6434 10.6184 19.3547 10.6184 18.1896 10.1586C17.3112 9.81141 16.354 9.61995 15.3528 9.61721C10.9645 9.60693 7.47513 13.276 7.55607 17.6637C7.58901 19.4425 7.9476 21.1825 8.5007 22.8312H31.4976C32.0506 21.1825 32.4092 19.4424 32.4422 17.6637C32.5231 13.2767 29.0336 9.60686 24.6454 9.61721Z" fill="url(#paint10_linear_39_1698)"/>
<path d="M24.6454 9.61721C23.6442 9.61995 22.687 9.81141 21.8086 10.1586C20.6434 10.6184 19.3547 10.6184 18.1896 10.1586C17.3112 9.81141 16.354 9.61995 15.3528 9.61721C10.9645 9.60693 7.47513 13.276 7.55607 17.6637C7.58901 19.4425 7.9476 21.1825 8.5007 22.8312H31.4976C32.0506 21.1825 32.4092 19.4424 32.4422 17.6637C32.5231 13.2767 29.0336 9.60686 24.6454 9.61721Z" fill="url(#paint11_linear_39_1698)"/>
<path d="M26.3938 36.5003C26.4072 36.4381 27.1633 32.83 25.9804 27.3411C25.0429 22.9906 22.6872 16.6624 16.8776 9.77141C16.385 9.67227 15.876 9.61862 15.3547 9.61721C10.9664 9.60693 7.47708 13.276 7.55802 17.6637C7.60335 20.1101 8.26273 22.4843 9.20014 24.6465C10.0922 26.7031 10.8004 28.8379 11.2684 31.0303C11.7643 33.3545 12.6361 35.4134 13.7723 37.0348C13.8741 37.1801 14.1017 37.0742 14.0553 36.903C14.0473 36.8735 14.0393 36.8438 14.0313 36.8137C12.9961 32.9094 15.9618 29.0879 20.0011 29.0879C24.0404 29.0879 27.0061 32.9094 25.9709 36.8137C25.9629 36.8438 25.9549 36.8736 25.9469 36.903C25.9005 37.0742 26.1281 37.1801 26.2299 37.0348C26.2877 36.9523 26.3444 36.8678 26.4008 36.783C26.3762 36.6936 26.3723 36.5971 26.3938 36.5003Z" fill="url(#paint12_linear_39_1698)"/>
<path d="M26.1753 8.31641C26.8437 8.72465 26.8343 9.69774 26.152 10.0822C25.2409 10.5955 24.1268 10.801 22.9891 10.5834C22.9754 10.5814 22.9623 10.5786 22.9493 10.5759C22.3434 10.4551 21.7175 10.6123 21.2056 11.0013C20.2202 11.7506 18.8958 12.093 17.5386 11.8337C16.6849 11.6704 15.9315 11.2908 15.3303 10.768C14.9405 10.429 14.4451 10.2554 13.936 10.2705C13.9326 10.2706 13.9291 10.2707 13.9256 10.2708C13.3738 10.2824 13.1197 9.58645 13.546 9.23586C13.6108 9.18261 13.6761 9.13006 13.742 9.07837C14.9844 8.10237 16.6523 7.83547 18.1237 8.41123C18.1316 8.41429 18.1394 8.41743 18.1474 8.42057C19.3125 8.88033 20.6012 8.88033 21.7664 8.42057C22.6448 8.07335 23.602 7.8819 24.6032 7.87915H24.6121C25.1557 7.87821 25.6913 8.02221 26.1557 8.30449C26.1622 8.30833 26.1688 8.31241 26.1753 8.31641Z" fill="url(#paint13_linear_39_1698)"/>
<path d="M40 38.3569V39.0212C40 39.5618 39.5618 40 39.0212 40H0.978824C0.438274 40 0 39.5618 0 39.0212V38.3569C0 34.4259 4.65333 31.24 10.3937 31.24H12.4835C13.5983 31.24 14.698 31.519 15.6674 32.0694C16.8969 32.7674 18.3898 33.1765 20 33.1765C21.6102 33.1765 23.1031 32.7674 24.3326 32.0694C25.3021 31.5191 26.4018 31.24 27.5166 31.24H29.6063C35.3467 31.24 40 34.4259 40 38.3569Z" fill="url(#paint14_linear_39_1698)"/>
<path d="M0 38.3564V39.0211C0 39.5617 0.438196 39.9999 0.978824 39.9999H39.0212C39.5617 39.9999 40 39.5617 40 39.0211V38.3564C40 36.4369 38.8898 34.6953 37.0856 33.4153H2.91443C1.1102 34.6953 0 36.437 0 38.3564Z" fill="url(#paint15_linear_39_1698)"/>
<path d="M40.0008 38.3569V39.0212C40.0008 39.5618 39.5626 40 39.022 40H16.7891V32.5961C17.7647 32.9686 18.8534 33.1765 20.0008 33.1765C21.611 33.1765 23.1039 32.7674 24.3335 32.0694C25.3029 31.5191 26.4026 31.24 27.5174 31.24H29.6071C35.3475 31.24 40.0008 34.4259 40.0008 38.3569Z" fill="url(#paint16_linear_39_1698)"/>
<path d="M40.0005 38.357V39.0213C40.0005 39.5617 39.562 40.0001 39.0216 40.0001H25.8828V38.2205C26.733 38.1131 27.551 37.6997 28.1573 36.9813C29.3683 35.5452 30.8216 33.6637 32.2169 31.4668C36.6938 32.259 40.0005 35.0433 40.0005 38.357Z" fill="url(#paint17_linear_39_1698)"/>
<path d="M29.8306 38.04C29.6 38.2714 29.3247 38.4329 29.0329 38.5239C28.6988 38.629 28.4031 38.8431 28.2306 39.1482C27.9506 39.6447 27.2878 40 25.9608 40C23.6729 40 23.1161 39.2125 23.1074 38.458C23.1035 38.1396 23.1992 37.84 23.3671 37.5874C23.9812 38.0282 24.7067 38.2486 25.4329 38.2486C26.4384 38.2486 27.4447 37.8259 28.1569 36.9812C28.6267 36.4235 29.1333 35.7992 29.6588 35.1145C29.6863 35.1357 29.7137 35.1584 29.7404 35.182C30.5953 35.938 30.6259 37.2455 29.8306 38.04Z" fill="url(#paint18_linear_39_1698)"/>
<path d="M27.0977 35.6143C26.8295 36.1178 26.5393 36.5923 26.2295 37.0347C26.1276 37.1806 25.9001 37.0747 25.9464 36.9029C25.9542 36.8739 25.9621 36.8441 25.9699 36.8135C26.2374 35.8072 26.2381 34.8065 26.0232 33.8755C26.0397 33.179 26.0272 32.357 25.9589 31.4268C25.8719 30.2323 25.693 28.859 25.366 27.3414C24.2687 22.2519 21.2327 14.4567 12.9966 6.22057C12.7668 5.99077 12.7668 5.61822 12.9966 5.38842C13.2264 5.15861 13.5981 5.15861 13.8279 5.38842C17.5628 9.12332 20.5762 13.088 22.7848 17.1735C24.5566 20.4512 25.817 23.8135 26.5315 27.1672C26.8538 28.6802 27.0366 30.0512 27.1291 31.2519C27.2789 33.1814 27.1981 34.6731 27.0977 35.6143Z" fill="url(#paint19_linear_39_1698)"/>
<path d="M13.8284 5.38854C13.5986 5.1589 13.2262 5.1589 12.9965 5.38854C12.7668 5.61835 12.7668 5.99074 12.9965 6.22047C15.5178 8.74172 17.551 11.2214 19.1913 13.595H20.6235C18.7365 10.7707 16.4621 8.02219 13.8284 5.38854Z" fill="url(#paint20_linear_39_1698)"/>
<path d="M11.8432 36.9817C13.265 38.6682 15.8602 38.6733 17.2823 36.9871C18.7026 35.3031 21.2967 35.3031 22.7169 36.9871C24.139 38.6733 26.7343 38.6682 28.1561 36.9817C29.3673 35.5452 30.8205 33.664 32.2161 31.4666C31.382 31.3189 30.5073 31.2402 29.6058 31.2402H27.5161C26.4012 31.2402 25.3016 31.5192 24.3321 32.0696C23.1027 32.7677 21.6098 33.1767 19.9996 33.1767C18.3894 33.1767 16.8965 32.7677 15.667 32.0696C14.6975 31.5193 13.5978 31.2402 12.483 31.2402H10.3933C9.49183 31.2402 8.61724 31.3189 7.7832 31.4666C9.17881 33.664 10.632 35.5452 11.8432 36.9817Z" fill="url(#paint21_linear_39_1698)"/>
<path d="M27.5173 31.24C26.6723 31.24 25.8361 31.4007 25.0587 31.718C26.053 33.1329 26.461 34.9638 25.9706 36.8136C25.9626 36.8438 25.9546 36.8736 25.9466 36.903C25.9001 37.0742 26.1278 37.1801 26.2296 37.0347C27.3313 35.4624 28.1834 33.4781 28.6863 31.2401H27.5173V31.24Z" fill="url(#paint22_linear_39_1698)"/>
<path d="M12.4835 31.24H11.3145C11.8173 33.478 12.6695 35.4623 13.7712 37.0347C13.873 37.18 14.1006 37.0741 14.0542 36.9029C14.0462 36.8735 14.0382 36.8437 14.0302 36.8136C13.5398 34.9638 13.9478 33.1329 14.9421 31.7179C14.1646 31.4007 13.3284 31.24 12.4835 31.24Z" fill="url(#paint23_linear_39_1698)"/>
<path d="M33.8476 32.4952C33.6184 32.2659 33.2467 32.2659 33.0173 32.4952L32.4319 33.0807C32.2026 33.31 32.2026 33.6816 32.4319 33.9109C32.6613 34.1403 33.0329 34.1403 33.2622 33.9109L33.8476 33.3255C34.0769 33.0962 34.0769 32.7245 33.8476 32.4952Z" fill="url(#paint24_linear_39_1698)"/>
<path d="M35.8681 38.7719L36.631 38.4506C36.9299 38.3247 37.0701 37.9805 36.9442 37.6816C36.8183 37.3828 36.4741 37.2426 36.1753 37.3685L35.4123 37.6898C35.1135 37.8157 34.9732 38.1599 35.0991 38.4587C35.225 38.7576 35.5692 38.8978 35.8681 38.7719Z" fill="url(#paint25_linear_39_1698)"/>
<path d="M27.6863 31.1611C27.9866 31.2835 28.3291 31.1392 28.4515 30.8389L28.7637 30.0721C28.886 29.7718 28.7417 29.4293 28.4414 29.3069C28.1411 29.1847 27.7986 29.3289 27.6762 29.6292L27.364 30.396C27.2417 30.6963 27.386 31.0388 27.6863 31.1611Z" fill="url(#paint26_linear_39_1698)"/>
<path d="M25.3663 27.3413C25.6933 28.8588 25.8722 30.2321 25.9592 31.4265C26.3421 31.3331 26.734 31.2759 27.1295 31.2527C27.1295 31.2524 27.1295 31.2521 27.1294 31.2519C27.0369 30.0511 26.8541 28.6801 26.5318 27.1672C26.1063 25.1701 25.4857 23.1702 24.6805 21.1868H23.3984C24.3758 23.4992 24.987 25.582 25.3663 27.3413Z" fill="url(#paint27_linear_39_1698)"/>
<path d="M16.3865 8.11304C15.9268 8.12739 15.4707 8.21312 15.0352 8.36668C16.1112 9.55837 17.0825 10.7364 17.9582 11.8936C18.4452 11.9429 18.9234 11.9163 19.3791 11.8228C18.4578 10.5681 17.4594 9.33029 16.3865 8.11304Z" fill="url(#paint28_linear_39_1698)"/>
<path d="M11.9085 6.76106L11.3242 6.17682L13.9134 3.58765L14.4976 4.17188C15.0366 4.71086 15.0366 5.58467 14.4976 6.12357L13.8601 6.76106C13.3212 7.30004 12.4474 7.30004 11.9085 6.76106Z" fill="url(#paint29_linear_39_1698)"/>
<path d="M11.9085 6.76106L11.3242 6.17682L13.9134 3.58765L14.4976 4.17188C15.0366 4.71086 15.0366 5.58467 14.4976 6.12357L13.8601 6.76106C13.3212 7.30004 12.4474 7.30004 11.9085 6.76106Z" fill="url(#paint30_linear_39_1698)"/>
<path d="M9.53374 7.18384L8.60621 6.25631C7.44637 5.09647 7.44637 3.216 8.60621 2.05608L9.79241 0.869882C10.9523 -0.289961 12.8327 -0.289961 13.9926 0.869882L14.9202 1.79741C15.4573 2.33451 15.4573 3.20526 14.9202 3.74227L11.4787 7.18377C10.9415 7.72094 10.0708 7.72094 9.53374 7.18384Z" fill="url(#paint31_linear_39_1698)"/>
<path d="M9.92731 0.743896C9.88143 0.784446 9.83625 0.826093 9.79241 0.869936L8.60621 2.05613C7.44637 3.21598 7.44637 5.09645 8.60621 6.25637L9.53374 7.1839C10.0708 7.721 10.9416 7.721 11.4786 7.1839L13.7462 4.91629L9.92731 0.743896Z" fill="url(#paint32_linear_39_1698)"/>
<path d="M13.4539 0.44439C12.3086 -0.265178 10.7859 -0.123845 9.79191 0.870116L8.60571 2.05631C7.61175 3.05027 7.47042 4.57302 8.17999 5.71835L13.4539 0.44439Z" fill="url(#paint33_linear_39_1698)"/>
</g>
<defs>
<linearGradient id="paint0_linear_39_1698" x1="8.77311" y1="8.22603" x2="35.5083" y2="34.9613" gradientUnits="userSpaceOnUse">
<stop stop-color="#EAF9FA"/>
<stop offset="1" stop-color="#B3DAFE"/>
</linearGradient>
<linearGradient id="paint1_linear_39_1698" x1="28.5754" y1="22.2208" x2="34.8199" y2="24.4853" gradientUnits="userSpaceOnUse">
<stop stop-color="#B3DAFE" stop-opacity="0"/>
<stop offset="0.2438" stop-color="#ACD5FA" stop-opacity="0.244"/>
<stop offset="0.589" stop-color="#9AC5F0" stop-opacity="0.589"/>
<stop offset="0.9932" stop-color="#7CACDF" stop-opacity="0.993"/>
<stop offset="1" stop-color="#7BACDF"/>
</linearGradient>
<linearGradient id="paint2_linear_39_1698" x1="16.1982" y1="11.3311" x2="22.5825" y2="4.94673" gradientUnits="userSpaceOnUse">
<stop stop-color="#B3DAFE" stop-opacity="0"/>
<stop offset="0.2438" stop-color="#ACD5FA" stop-opacity="0.244"/>
<stop offset="0.589" stop-color="#9AC5F0" stop-opacity="0.589"/>
<stop offset="0.9932" stop-color="#7CACDF" stop-opacity="0.993"/>
<stop offset="1" stop-color="#7BACDF"/>
</linearGradient>
<linearGradient id="paint3_linear_39_1698" x1="11.06" y1="12.218" x2="13.2561" y2="6.20502" gradientUnits="userSpaceOnUse">
<stop stop-color="#B3DAFE" stop-opacity="0"/>
<stop offset="0.2438" stop-color="#ACD5FA" stop-opacity="0.244"/>
<stop offset="0.589" stop-color="#9AC5F0" stop-opacity="0.589"/>
<stop offset="0.9932" stop-color="#7CACDF" stop-opacity="0.993"/>
<stop offset="1" stop-color="#7BACDF"/>
</linearGradient>
<linearGradient id="paint4_linear_39_1698" x1="19.9999" y1="29.1677" x2="19.9999" y2="33.4702" gradientUnits="userSpaceOnUse">
<stop stop-color="#B3DAFE" stop-opacity="0"/>
<stop offset="0.2438" stop-color="#ACD5FA" stop-opacity="0.244"/>
<stop offset="0.589" stop-color="#9AC5F0" stop-opacity="0.589"/>
<stop offset="0.9932" stop-color="#7CACDF" stop-opacity="0.993"/>
<stop offset="1" stop-color="#7BACDF"/>
</linearGradient>
<linearGradient id="paint5_linear_39_1698" x1="10.711" y1="11.5769" x2="30.4738" y2="34.2218" gradientUnits="userSpaceOnUse">
<stop stop-color="#FEDBBD"/>
<stop offset="1" stop-color="#FD8087"/>
</linearGradient>
<linearGradient id="paint6_linear_39_1698" x1="16.764" y1="20.1966" x2="34.1938" y2="27.2302" gradientUnits="userSpaceOnUse">
<stop stop-color="#FD8087" stop-opacity="0"/>
<stop offset="1" stop-color="#FD8087"/>
</linearGradient>
<linearGradient id="paint7_linear_39_1698" x1="2.21093" y1="18.9906" x2="24.299" y2="27.1347" gradientUnits="userSpaceOnUse">
<stop stop-color="#FD8087" stop-opacity="0"/>
<stop offset="1" stop-color="#FD8087"/>
</linearGradient>
<linearGradient id="paint8_linear_39_1698" x1="19.9993" y1="27.8868" x2="19.9993" y2="31.2721" gradientUnits="userSpaceOnUse">
<stop stop-color="#FD8087" stop-opacity="0"/>
<stop offset="1" stop-color="#FD8087"/>
</linearGradient>
<linearGradient id="paint9_linear_39_1698" x1="13.2967" y1="23.569" x2="8.56211" y2="24.7012" gradientUnits="userSpaceOnUse">
<stop stop-color="#FD8087" stop-opacity="0"/>
<stop offset="1" stop-color="#FD8087"/>
</linearGradient>
<linearGradient id="paint10_linear_39_1698" x1="19.999" y1="14.2658" x2="19.999" y2="9.09007" gradientUnits="userSpaceOnUse">
<stop stop-color="#FD8087" stop-opacity="0"/>
<stop offset="1" stop-color="#FD8087"/>
</linearGradient>
<linearGradient id="paint11_linear_39_1698" x1="18.9263" y1="15.9153" x2="16.3187" y2="10.1969" gradientUnits="userSpaceOnUse">
<stop stop-color="#FD8087" stop-opacity="0"/>
<stop offset="1" stop-color="#FD8087"/>
</linearGradient>
<linearGradient id="paint12_linear_39_1698" x1="18.9371" y1="23.8069" x2="23.7475" y2="21.4016" gradientUnits="userSpaceOnUse">
<stop stop-color="#FD8087" stop-opacity="0"/>
<stop offset="1" stop-color="#FD8087"/>
</linearGradient>
<linearGradient id="paint13_linear_39_1698" x1="17.5168" y1="5.75351" x2="24.3481" y2="15.7035" gradientUnits="userSpaceOnUse">
<stop stop-color="#5A5A5A"/>
<stop offset="1" stop-color="#433F43"/>
</linearGradient>
<linearGradient id="paint14_linear_39_1698" x1="18.4758" y1="30.3881" x2="21.1937" y2="44.8606" gradientUnits="userSpaceOnUse">
<stop stop-color="#FEDBBD"/>
<stop offset="1" stop-color="#FD8087"/>
</linearGradient>
<linearGradient id="paint15_linear_39_1698" x1="20" y1="36.6187" x2="20" y2="40.5343" gradientUnits="userSpaceOnUse">
<stop stop-color="#FD8087" stop-opacity="0"/>
<stop offset="1" stop-color="#FD8087"/>
</linearGradient>
<linearGradient id="paint16_linear_39_1698" x1="27.3213" y1="35.62" x2="38.6254" y2="35.62" gradientUnits="userSpaceOnUse">
<stop stop-color="#FD8087" stop-opacity="0"/>
<stop offset="1" stop-color="#FD8087"/>
</linearGradient>
<linearGradient id="paint17_linear_39_1698" x1="34.1365" y1="38.5897" x2="29.2738" y2="35.1387" gradientUnits="userSpaceOnUse">
<stop stop-color="#FD8087" stop-opacity="0"/>
<stop offset="1" stop-color="#FD8087"/>
</linearGradient>
<linearGradient id="paint18_linear_39_1698" x1="26.2098" y1="36.4521" x2="28.2098" y2="40.1776" gradientUnits="userSpaceOnUse">
<stop stop-color="#FEF0AE"/>
<stop offset="1" stop-color="#FAC600"/>
</linearGradient>
<linearGradient id="paint19_linear_39_1698" x1="10.7479" y1="6.90904" x2="29.6891" y2="34.6896" gradientUnits="userSpaceOnUse">
<stop stop-color="#EAF9FA"/>
<stop offset="1" stop-color="#B3DAFE"/>
</linearGradient>
<linearGradient id="paint20_linear_39_1698" x1="15.5879" y1="8.56988" x2="13.2492" y2="6.23121" gradientUnits="userSpaceOnUse">
<stop stop-color="#B3DAFE" stop-opacity="0"/>
<stop offset="0.2438" stop-color="#ACD5FA" stop-opacity="0.244"/>
<stop offset="0.589" stop-color="#9AC5F0" stop-opacity="0.589"/>
<stop offset="0.9932" stop-color="#7CACDF" stop-opacity="0.993"/>
<stop offset="1" stop-color="#7BACDF"/>
</linearGradient>
<linearGradient id="paint21_linear_39_1698" x1="19.9997" y1="27.0852" x2="19.9997" y2="38.2318" gradientUnits="userSpaceOnUse">
<stop stop-color="#B3DAFE" stop-opacity="0"/>
<stop offset="0.2438" stop-color="#ACD5FA" stop-opacity="0.244"/>
<stop offset="0.589" stop-color="#9AC5F0" stop-opacity="0.589"/>
<stop offset="0.9932" stop-color="#7CACDF" stop-opacity="0.993"/>
<stop offset="1" stop-color="#7BACDF"/>
</linearGradient>
<linearGradient id="paint22_linear_39_1698" x1="26.8725" y1="30.7974" x2="26.8725" y2="37.2886" gradientUnits="userSpaceOnUse">
<stop stop-color="#FD8087" stop-opacity="0"/>
<stop offset="1" stop-color="#FD8087"/>
</linearGradient>
<linearGradient id="paint23_linear_39_1698" x1="13.1283" y1="30.7974" x2="13.1283" y2="37.2886" gradientUnits="userSpaceOnUse">
<stop stop-color="#FD8087" stop-opacity="0"/>
<stop offset="1" stop-color="#FD8087"/>
</linearGradient>
<linearGradient id="paint24_linear_39_1698" x1="32.1868" y1="31.8" x2="34.4005" y2="35.0467" gradientUnits="userSpaceOnUse">
<stop stop-color="#F28CC4"/>
<stop offset="1" stop-color="#E41F2D"/>
</linearGradient>
<linearGradient id="paint25_linear_39_1698" x1="35.0607" y1="36.6554" x2="37.2917" y2="39.9275" gradientUnits="userSpaceOnUse">
<stop stop-color="#F28CC4"/>
<stop offset="1" stop-color="#E41F2D"/>
</linearGradient>
<linearGradient id="paint26_linear_39_1698" x1="26.8938" y1="28.5119" x2="29.6136" y2="32.5008" gradientUnits="userSpaceOnUse">
<stop stop-color="#F28CC4"/>
<stop offset="1" stop-color="#E41F2D"/>
</linearGradient>
<linearGradient id="paint27_linear_39_1698" x1="25.2257" y1="25.7889" x2="25.9054" y2="33.1091" gradientUnits="userSpaceOnUse">
<stop stop-color="#FD8087" stop-opacity="0"/>
<stop offset="1" stop-color="#FD8087"/>
</linearGradient>
<linearGradient id="paint28_linear_39_1698" x1="16.9723" y1="9.255" x2="18.1488" y2="13.4641" gradientUnits="userSpaceOnUse">
<stop stop-color="#1A1A1A" stop-opacity="0"/>
<stop offset="1" stop-color="#1A1A1A"/>
</linearGradient>
<linearGradient id="paint29_linear_39_1698" x1="15.0616" y1="5.47554" x2="11.9917" y2="5.29845" gradientUnits="userSpaceOnUse">
<stop stop-color="#C8EFFE"/>
<stop offset="1" stop-color="#62DBFB"/>
</linearGradient>
<linearGradient id="paint30_linear_39_1698" x1="15.0616" y1="5.47554" x2="11.9917" y2="5.29845" gradientUnits="userSpaceOnUse">
<stop stop-color="#07B2CD" stop-opacity="0"/>
<stop offset="0.3759" stop-color="#06AEC9" stop-opacity="0.376"/>
<stop offset="0.7648" stop-color="#04A3BD" stop-opacity="0.765"/>
<stop offset="1" stop-color="#0199B1"/>
</linearGradient>
<linearGradient id="paint31_linear_39_1698" x1="13.303" y1="1.18426" x2="9.14918" y2="5.80152" gradientUnits="userSpaceOnUse">
<stop stop-color="#C8EFFE"/>
<stop offset="1" stop-color="#62DBFB"/>
</linearGradient>
<linearGradient id="paint32_linear_39_1698" x1="10.5884" y1="4.16678" x2="8.56206" y2="6.54524" gradientUnits="userSpaceOnUse">
<stop stop-color="#07B2CD" stop-opacity="0"/>
<stop offset="0.3759" stop-color="#06AEC9" stop-opacity="0.376"/>
<stop offset="0.7648" stop-color="#04A3BD" stop-opacity="0.765"/>
<stop offset="1" stop-color="#0199B1"/>
</linearGradient>
<linearGradient id="paint33_linear_39_1698" x1="10.941" y1="-1.95746" x2="10.2119" y2="6.82324" gradientUnits="userSpaceOnUse">
<stop stop-color="#07B2CD" stop-opacity="0"/>
<stop offset="0.3759" stop-color="#06AEC9" stop-opacity="0.376"/>
<stop offset="0.7648" stop-color="#04A3BD" stop-opacity="0.765"/>
<stop offset="1" stop-color="#0199B1"/>
</linearGradient>
<clipPath id="clip0_39_1698">
<rect width="40" height="40" fill="white"/>
</clipPath>
</defs>
</svg>
