<svg width="20" height="20" viewBox="0 0 20 20" fill="none" xmlns="http://www.w3.org/2000/svg">
<path d="M3.51667 9.07501V17.4083" stroke="#606060" stroke-width="1.5" stroke-linecap="round" stroke-linejoin="round"/>
<path d="M16.4833 9.07501V17.4083" stroke="#606060" stroke-width="1.5" stroke-linecap="round" stroke-linejoin="round"/>
<path d="M11.8517 17.4075V13.7042C11.8517 12.6817 11.0225 11.8525 10 11.8525C8.9775 11.8525 8.14833 12.6817 8.14833 13.7042V17.4075" stroke="#606060" stroke-width="1.5" stroke-linecap="round" stroke-linejoin="round"/>
<path d="M1.66667 17.4083H18.3333" stroke="#606060" stroke-width="1.5" stroke-linecap="round" stroke-linejoin="round"/>
<path fill-rule="evenodd" clip-rule="evenodd" d="M3.58417 9.07417C2.16917 9.06417 1.24667 7.66333 1.86 6.45583L3.28917 3.64167C3.615 3 4.3 2.5925 5.05167 2.5925H14.9483C15.7 2.5925 16.385 3 16.7108 3.64167L18.1408 6.45583C18.7542 7.66333 17.8317 9.06417 16.4167 9.07417C15.2358 9.07417 14.2783 8.2675 14.2783 7.27167V7.23167C14.2783 8.24917 13.3208 9.07417 12.14 9.07417C10.9592 9.07417 10.0017 8.24917 10.0017 7.23167C10.0017 8.24917 9.04417 9.07417 7.86333 9.07417C6.6825 9.07417 5.725 8.24917 5.725 7.23167V7.27167C5.7225 8.2675 4.765 9.07417 3.58417 9.07417Z" stroke="#606060" stroke-width="1.5" stroke-linecap="round" stroke-linejoin="round"/>
</svg>
