<svg width="123" height="24" viewBox="0 0 123 24" fill="none" xmlns="http://www.w3.org/2000/svg">
<g clip-path="url(#clip0_39_1756)">
<path d="M104.461 17.443C103.438 17.1872 103.182 16.6748 103.054 15.65C102.799 13.9852 102.799 9.8867 103.054 8.09406C103.182 7.19753 103.694 6.68511 104.461 6.42891C105.356 6.17311 113.539 6.0448 114.433 6.42891C115.201 6.68511 115.457 7.19753 115.584 7.96575C115.968 9.6309 115.968 13.8573 115.584 15.5221C115.457 16.2903 115.201 16.6748 114.433 17.0589C113.666 17.6992 105.611 17.6992 104.461 17.443ZM117.119 0.79395C114.689 0.281531 105.356 0.153633 101.648 0.79395C98.8345 1.30637 96.6614 3.35522 96.0217 5.9169C95.5106 8.86269 95.5106 15.3938 96.0217 18.0837C96.5333 20.5167 98.5792 22.6939 101.648 23.2063C104.844 23.8466 114.306 23.7183 117.246 23.0784C120.699 22.3098 122.105 19.7485 122.489 18.0833C123 15.5221 123 8.99017 122.489 5.91649C121.85 3.22732 119.548 1.30637 117.119 0.79395ZM85.0262 0.921848H92.0585V23.078H85.0262V0.921848ZM73.7745 14.6255C74.9253 14.8813 75.1811 15.7783 75.1811 16.5465C75.1811 17.3147 75.0534 18.2116 73.7745 18.3395C72.3678 18.5953 67.6372 18.5953 65.8471 18.3395C65.0802 18.2116 64.1851 18.2116 63.9294 16.8027V16.4186H56.8971C56.8971 16.5465 56.8971 16.9306 57.0248 17.443C57.2805 20.3888 58.4314 22.4377 61.7558 23.078C64.4409 23.5904 74.5414 23.7183 77.61 23.078C81.1902 22.3098 82.0853 19.1078 82.0853 16.2903C82.0853 13.0887 80.9344 10.9115 78.1216 10.015C77.3547 9.7588 75.5646 9.6309 74.7976 9.6309C74.1579 9.6309 66.6145 9.37469 64.9521 9.11849C63.9294 8.99059 63.6736 8.34986 63.6736 7.45374C63.6736 6.55763 63.8013 5.9169 65.0802 5.66069C66.6145 5.40448 72.6236 5.40448 73.2629 5.66069C74.0303 5.91649 74.286 6.42891 74.286 7.06922V7.58164H81.3183C81.3183 7.06922 81.1906 6.68512 81.1906 6.30101C80.8067 2.84321 78.889 0.921848 75.4365 0.665639C71.9848 0.281944 64.057 0.409842 61.6277 0.793537C59.3264 1.30637 57.0248 2.7149 57.0248 7.45374C57.0248 11.2956 58.8149 13.2166 61.8835 13.8569C62.7785 13.9848 65.3356 14.1131 65.7195 14.1131C66.6145 14.241 73.2629 14.4972 73.7745 14.6255ZM46.0292 14.4976H38.2296L41.554 5.66028H42.7048L46.0292 14.4976ZM47.5635 19.1078L49.0979 23.078H56.6413L47.1801 0.79395H36.9511L27.6175 23.078H35.161L36.6953 18.9799L47.5635 19.1078ZM7.41575 15.7783C7.54343 17.0589 8.18269 17.3151 8.82195 17.443C9.8451 17.6988 17.1328 17.6988 18.4117 17.443C19.3063 17.3151 19.946 16.6748 20.0737 15.9062C20.0737 15.5221 20.2014 14.8818 20.2014 14.6255H27.4899C27.4899 15.138 27.4899 16.4186 27.3622 17.5713C26.9787 20.2605 25.4444 22.4377 22.12 23.2063C19.8183 23.7183 8.69468 23.7183 6.13764 23.2063C3.45167 22.566 1.15041 20.9008 0.510742 18.0833C-7.53999e-06 15.5225 -7.53999e-06 8.86228 0.511154 6.0448C0.89504 3.99554 2.81323 1.56217 6.00954 0.921848C8.95047 0.409842 19.3071 0.281531 22.12 0.921848C25.8274 1.81837 26.9779 5.14827 27.106 6.30142C27.2337 7.58205 27.2337 8.47858 27.2337 8.991H19.946C19.946 8.47858 20.0737 7.06964 18.7952 6.68553C18.0278 6.42973 10.8678 6.42973 9.07774 6.55763C8.18269 6.68553 7.67153 7.06963 7.54343 7.96616C7.15996 9.75921 7.15996 14.1131 7.41575 15.7783Z" fill="#003296"/>
</g>
<defs>
<clipPath id="clip0_39_1756">
<rect width="123" height="24" fill="white"/>
</clipPath>
</defs>
</svg>
