<svg width="196" height="200" viewBox="0 0 196 200" fill="none" xmlns="http://www.w3.org/2000/svg">
<path d="M0 199.999H73.3255C73.4527 199.999 73.559 199.902 73.5711 199.775L75.3535 180.65C75.371 180.462 75.1799 180.325 75.0076 180.401C72.0451 181.721 52.951 190.182 51.5138 189.724C49.9548 189.228 19.2266 155.736 19.014 155.146C18.8229 154.615 18.8229 149.16 18.8242 148.063C18.8242 147.95 18.7489 147.852 18.6392 147.825C17.2303 147.466 8.26323 145.131 8.2195 143.738C8.1724 142.226 9.61296 141.919 8.2666 141.116C6.92023 140.313 5.952 138.07 7.1093 137.574C8.2666 137.078 5.66873 133.937 7.08575 133.252C8.50276 132.567 3.92068 130.441 7.17995 127.678C10.4392 124.914 23.8787 128.622 24.9653 130.701C26.052 132.779 24.4223 133.771 22.2961 134.055C20.1706 134.338 10.0611 131.882 11.431 132.543C12.8009 133.204 25.9571 137.007 27.6809 139.747C29.4054 142.487 27.4447 143.833 25.6731 143.243C23.9015 142.652 22.2248 140.975 18.3041 140.054C14.3834 139.133 11.1006 139.227 12.1395 138.59C13.1791 137.952 18.9184 138.637 23.2166 141.211C27.5154 143.786 27.6809 147.116 25.7909 147.258C23.9015 147.4 11.2413 142.817 12.4934 142.699C13.7449 142.581 21.9644 144.66 23.8544 146.336C25.7438 148.013 18.9891 147.541 18.8236 147.47C18.6708 147.405 16.3993 113.903 16.0561 108.831C16.0407 108.606 16.3112 108.48 16.4733 108.637C20.4673 112.505 49.0929 140.219 49.2685 140.219C49.4576 140.219 49.1266 188.449 50.9217 188.827C52.6509 189.191 50.084 143.696 49.8936 140.364C49.8869 140.251 49.9589 140.148 50.0665 140.115L116.47 119.479C116.631 119.429 116.794 119.551 116.79 119.719C116.691 123.966 115.698 166.288 115.496 166.625C115.3 166.952 81.6883 178.237 76.6002 179.943C76.3809 180.016 76.1898 179.776 76.3123 179.579C78.2857 176.415 88.0999 161.469 95.5853 164.641C103.947 168.183 89.7753 138.352 101.254 143.596C112.248 148.618 116.492 121.191 116.83 118.866C116.845 118.771 116.801 118.676 116.721 118.624L76.4246 92.3297C76.3681 92.2927 76.2995 92.2806 76.2335 92.2961C73.4708 92.9501 15.6322 106.651 17.4772 107.388C19.3053 108.119 72.0639 95.41 75.4995 94.5817C75.6038 94.5568 75.6791 94.4673 75.6865 94.3604C75.8399 92.1709 77.5779 70.5416 86.6337 65.2517C95.5806 60.0257 111.42 59.4504 113.363 59.3986C113.476 59.3959 113.577 59.4699 113.607 59.5802C113.895 60.6501 115.575 66.0254 120.592 67.5965C120.868 67.6827 120.791 68.0897 120.502 68.0776C113.745 67.7863 113.054 61.5665 113.701 55.1899C114.41 48.1984 110.819 45.3172 111.859 40.357C112.898 35.3968 110.3 29.9171 111.67 29.6809C113.04 29.4448 119.511 34.8773 128.864 33.1764C138.218 31.4761 144.359 27.6025 144.075 27.3664C143.792 27.1302 122.015 15.1313 114.22 15.8405C106.426 16.549 95.703 24.2491 99.0572 25.0989C102.411 25.9493 108.363 26.6107 114.551 29.3028C120.74 31.9955 128.251 31.7123 134.533 29.2557C140.815 26.7991 144.878 27.2715 151.586 28.7363C158.294 30.2004 159.948 14.0453 152.531 6.81761C145.116 -0.408765 131.558 -1.02307 122.867 1.00825C114.175 3.03958 114.364 13.9518 115.592 13.7156C116.82 13.4795 128.299 16.4555 135.715 20.0458C143.131 23.6361 145.258 24.3917 145.258 30.0133C145.258 35.635 144.927 37.9496 142.896 40.8307C140.865 43.7125 132.456 56.325 132.74 56.7973C133.024 57.2697 139.211 60.6238 140.817 60.1515C142.424 59.6791 143.415 57.6949 143.179 53.5381C142.943 49.3812 144.502 44.1377 146.627 44.752C148.753 45.3663 147.667 53.5858 149.367 53.1135C151.068 52.6412 156.217 43.1937 156.217 43.0047C156.217 42.8156 150.312 36.1551 150.123 35.2575C149.946 34.4178 151.093 32.8332 152.518 32.8265C152.67 32.8258 152.783 32.6872 152.757 32.5379C152.448 30.7959 152.542 29.4468 152.721 29.4468C152.91 29.4468 153.052 32.659 153.761 32.7061C153.761 32.7061 155.06 32.8003 154.753 34.7374C154.445 36.6745 153.548 38.1386 153.525 38.0438C153.501 37.9496 151.234 34.3592 149.368 34.1702C147.502 33.9811 145.652 38.5793 142.691 43.1137C139.973 47.2772 134.932 55.6226 134.125 56.9608C134.063 57.0651 133.934 57.1075 133.822 57.0611C133.127 56.7758 130.735 55.8944 129.559 56.7502C128.173 57.7582 126.221 60.2141 127.291 60.5296C128.362 60.8445 132.109 61.6317 131.795 61.0336C131.48 60.4354 128.015 59.3643 126.283 60.9703C124.551 62.5764 123.165 67.0165 124.394 65.946C125.622 64.8755 130.063 65.3795 129.401 64.5606C128.74 63.7418 124.52 64.2141 123.89 66.6707C123.26 69.1273 123.386 74.8269 124.835 76.3072C126.283 77.7875 128.551 75.52 127.795 74.0397C127.04 72.5595 126.976 70.2294 128.519 70.1661C130.062 70.1029 130.976 73.9765 130.314 74.7953C129.653 75.6142 127.732 75.1102 128.551 74.7953C129.37 74.4804 130.755 74.1339 130.818 76.433C130.881 78.7321 130.519 80.8422 133.731 85.5656C136.943 90.2896 144.052 97.8242 149.154 108.665C154.256 119.506 160.349 128.859 166.585 135.095C172.82 141.33 177.851 148.275 183.945 143.385C190.039 138.496 190.18 132.828 190.605 128.293C191.031 123.758 191.739 119.223 187.842 115.821C183.945 112.42 177.072 113.909 178.135 115.184C179.198 116.459 183.804 123.191 184.654 122.269C185.505 121.348 178.277 113.554 173.459 110.436C168.64 107.318 150.004 89.746 146.745 82.235C143.486 74.724 145.651 66.7642 146.375 63.363C147.099 59.9617 148.454 58.135 149.336 56.8128C150.218 55.49 148.674 53.349 149.871 53.8213C151.068 54.2937 152.17 61.6627 153.241 64.3083C154.311 66.954 147.51 80.968 146.722 79.582C145.934 78.1966 146.344 65.8512 147.477 64.8439C148.611 63.836 150.028 62.1983 149.934 59.9315C149.84 57.664 152.705 63.2695 157.051 66.7656C161.397 70.261 176.93 77.2761 178.419 79.189C179.907 81.1019 171.829 95.9113 170.554 94.6362C169.278 93.3605 177.214 78.4805 179.34 79.473C181.465 80.4647 186.496 91.5896 188.268 99.4545C190.04 107.319 189.544 115.468 188.693 113.768C187.843 112.068 183.546 109.438 180.261 111.288C176.976 113.137 168.357 103.848 168.782 103.777C169.208 103.706 179.127 98.9586 177.285 97.0457C175.443 95.1328 168.074 103.494 164.177 110.65C160.28 117.806 155.697 148.961 152.863 156.707C150.029 164.454 129.811 181.082 129.434 175.035C129.055 168.989 152.863 152.172 153.997 158.218C155.075 163.966 154.103 196.541 154.005 199.746C154.001 199.886 154.113 200 154.251 200H195.189" stroke="#03373D" stroke-width="1.5" stroke-miterlimit="10"/>
</svg>
