<svg width="93" height="28" viewBox="0 0 93 28" fill="none" xmlns="http://www.w3.org/2000/svg">
<path d="M20.8783 6.86877V15.5333C20.8783 15.6737 20.8225 15.8084 20.7233 15.9078C20.6241 16.0071 20.4895 16.0629 20.3492 16.0629H17.6165C17.4762 16.0628 17.3417 16.007 17.2425 15.9077C17.1433 15.8084 17.0875 15.6737 17.0874 15.5333V1.44001C17.0874 1.29956 17.1432 1.16487 17.2424 1.06555C17.3416 0.966239 17.4762 0.910446 17.6165 0.910446H20.1453C20.2856 0.910446 20.4202 0.966239 20.5194 1.06555C20.6186 1.16487 20.6744 1.29956 20.6744 1.44001V3.42472C20.6744 3.42472 21.5783 0.593593 24.2611 0.593593C24.2611 0.593593 26.9146 0.272538 27.9936 3.22041C27.9936 3.22041 28.8975 0.593593 31.6386 0.593593C31.6386 0.593593 35.7149 0.350992 35.7149 4.57281L35.746 6.89795V15.5625C35.746 15.7029 35.6902 15.8376 35.591 15.9369C35.4918 16.0363 35.3572 16.092 35.2169 16.092H32.484C32.3437 16.092 32.2092 16.0362 32.1099 15.9369C32.0107 15.8376 31.955 15.7029 31.9549 15.5625L31.93 6.10991C32.0076 3.96946 30.2776 4.1252 30.2776 4.1252C28.1004 4.1642 28.3099 6.89795 28.3099 6.89795V15.5625C28.3099 15.7029 28.2542 15.8376 28.1549 15.9369C28.0557 16.0363 27.9211 16.092 27.7808 16.092H25.0482C24.9079 16.092 24.7733 16.0362 24.6741 15.9369C24.5749 15.8376 24.5191 15.7029 24.5191 15.5625V6.32379C24.5191 6.32379 24.6789 4.10559 22.7347 4.10559C22.7349 4.10559 20.8104 3.85271 20.8783 6.86877ZM91.3187 6.84285V15.5071C91.3187 15.6476 91.2629 15.7822 91.1637 15.8815C91.0645 15.9808 90.9299 16.0366 90.7896 16.0367L87.9476 16.0918C87.8073 16.0918 87.6727 16.0359 87.5735 15.9366C87.4743 15.8373 87.4186 15.7027 87.4185 15.5622V6.32379C87.4185 6.32379 87.5783 4.10559 85.6344 4.10559C85.6344 4.10559 83.7777 4.01406 83.7777 7.49196V15.5331C83.7776 15.6735 83.7218 15.8082 83.6226 15.9075C83.5234 16.0068 83.3889 16.0626 83.2486 16.0626H80.5157C80.3754 16.0626 80.2409 16.0068 80.1416 15.9075C80.0424 15.8082 79.9867 15.6735 79.9866 15.5331V1.44001C79.9867 1.29958 80.0424 1.16492 80.1416 1.06562C80.2409 0.966321 80.3754 0.910508 80.5157 0.910446H83.0445C83.1848 0.910446 83.3194 0.966239 83.4186 1.06555C83.5178 1.16487 83.5735 1.29956 83.5735 1.44001V3.42472C83.5735 3.42472 84.4775 0.593593 87.1602 0.593593C87.1602 0.593593 90.034 0.157191 91.0019 3.16554C91.0022 3.16531 91.3187 3.78593 91.3187 6.84285ZM71.5878 0.535219C68.0932 0.535219 65.26 3.48309 65.26 8.44486C65.26 12.8133 67.447 16.3545 71.5878 16.3545C75.4952 16.3545 77.9155 12.8133 77.9155 8.44486C77.9155 3.57065 75.0826 0.535219 71.5878 0.535219ZM73.7935 8.61998C73.7935 10.4879 73.5602 11.4803 73.5602 11.4803C73.2282 13.455 71.7961 13.4578 71.585 13.4473C71.3571 13.4564 69.9128 13.4358 69.614 11.4803C69.614 11.4803 69.3807 10.4879 69.3807 8.61998V8.30873C69.3807 6.44077 69.614 5.44842 69.614 5.44842C69.9128 3.4929 71.3573 3.47235 71.585 3.48122C71.7961 3.47072 73.2282 3.47328 73.5602 5.44842C73.5602 5.44842 73.7935 6.44077 73.7935 8.30873V8.61998ZM63.674 3.4051V1.38304C63.6739 1.24261 63.6181 1.10795 63.5189 1.00865C63.4197 0.909348 63.2852 0.853535 63.1449 0.853473H54.1122C53.9719 0.853473 53.8373 0.909266 53.7381 1.00858C53.6389 1.10789 53.5831 1.24259 53.5831 1.38304V3.38946C53.5832 3.52989 53.639 3.66455 53.7382 3.76385C53.8374 3.86315 53.9719 3.91897 54.1122 3.91903H58.8238L53.247 12.0166C53.247 12.0166 53.0272 12.3449 53.0345 12.7075V15.1707C53.0345 15.1707 52.9981 16.0152 53.955 15.5251C53.955 15.5251 55.6547 14.4973 58.5047 14.4973C58.5047 14.4973 61.3192 14.4623 63.1957 15.6136C63.1957 15.6136 63.9746 15.9681 63.9746 15.1887V13.0447C63.9746 13.0447 64.0453 12.4773 63.3019 12.1231C63.3019 12.1231 61.1421 10.936 58.3099 11.1307L63.674 3.4051ZM14.9783 13.5425L14.1229 12.2391C13.8506 11.7525 13.8702 11.2076 13.8702 11.2076V5.19531C13.9869 4.91738e-05 8.23253 0.447659 8.23253 0.447659C3.11714 0.447659 2.36154 4.43225 2.36154 4.43225C2.14832 5.23337 2.76838 5.25275 2.76838 5.25275L5.26799 5.50656C5.26799 5.50656 5.6942 5.60416 5.84933 5.09631C5.84933 5.09631 6.17849 3.35794 8.01931 3.35794C10.0223 3.35794 10.0015 5.07856 10.0015 5.07856V6.51899C6.00306 6.65278 4.15011 7.76375 4.15011 7.76375C1.68129 9.16472 1.83666 11.9473 1.83666 11.9473C1.83666 16.4808 6.15236 16.2861 6.15236 16.2861C8.91278 16.2861 10.5458 14.2626 10.5458 14.2626C11.0317 15.1191 11.9261 15.9358 11.9261 15.9358C12.3735 16.4215 12.8398 16.0138 12.8398 16.0138L14.8617 14.2822C15.3087 13.9511 14.9783 13.5425 14.9783 13.5425ZM7.49956 13.4865C6.20112 13.4865 5.71846 12.195 5.93401 10.9257C6.1498 9.65646 7.27048 8.65897 10.0017 8.68816V9.45986C10.0986 12.8311 8.58036 13.4865 7.49956 13.4865ZM51.2923 13.5425L50.4371 12.2391C50.1649 11.7525 50.1842 11.2076 50.1842 11.2076V5.19531C50.3009 4.91738e-05 44.5465 0.447659 44.5465 0.447659C39.4311 0.447659 38.6755 4.43225 38.6755 4.43225C38.4623 5.23337 39.0824 5.25275 39.0824 5.25275L41.582 5.50656C41.582 5.50656 42.0082 5.60416 42.1633 5.09631C42.1633 5.09631 42.4925 3.35794 44.3333 3.35794C46.3362 3.35794 46.3155 5.07856 46.3155 5.07856V6.51899C42.3173 6.65278 40.4641 7.76375 40.4641 7.76375C37.9953 9.16472 38.1506 11.9473 38.1506 11.9473C38.1506 16.4808 42.4663 16.2861 42.4663 16.2861C45.2268 16.2861 46.8597 14.2626 46.8597 14.2626C47.3459 15.1191 48.2398 15.9358 48.2398 15.9358C48.6873 16.4215 49.1538 16.0138 49.1538 16.0138L51.1754 14.2822C51.6226 13.9511 51.2923 13.5425 51.2923 13.5425ZM43.8135 13.4865C42.5151 13.4865 42.0324 12.195 42.248 10.9257C42.4638 9.65646 43.5845 8.65897 46.3155 8.68816V9.45986C46.4125 12.8311 44.8946 13.4865 43.8135 13.4865Z" fill="black"/>
<path d="M58.1731 24.9226C58.1731 24.9226 57.9445 25.3207 58.2254 25.4097C58.2254 25.4097 58.5426 25.5337 58.9383 25.1661C58.9383 25.1661 61.8237 22.6432 61.8933 18.0499C61.8933 18.0499 61.9145 17.4762 61.6845 17.3193C61.6845 17.3193 60.7805 16.5189 57.53 16.7624C57.53 16.7624 54.6965 16.9539 53.1497 18.3285C53.1497 18.3285 53.0106 18.4501 53.0106 18.6066C53.0106 18.6066 52.9773 18.9444 53.8276 18.798C53.8276 18.798 56.6608 18.3976 58.3469 18.6066C58.3469 18.6066 59.2164 18.7109 59.4597 19.007C59.4597 19.007 59.8595 19.3376 59.6507 20.4334C59.6507 20.4339 59.0769 23.2176 58.1731 24.9226Z" fill="#F3971B"/>
<path d="M57.6018 20.5158C57.6018 20.5158 58.025 21.0645 57.3422 21.5378C57.3422 21.5378 50.0482 27.3775 37.8009 27.3775C37.8009 27.3775 25.1939 28 14.6671 18.4267C14.6671 18.4267 14.2981 18.1024 14.5271 17.801C14.5271 17.801 14.732 17.5236 15.2622 17.8252C15.2622 17.8252 25.1648 24.0014 38.1702 24.0014C38.1702 24.0014 47.2099 24.3517 56.4828 20.3822C56.4828 20.3822 57.2216 19.9991 57.6018 20.5158Z" fill="#F3971B"/>
</svg>
