<svg width="20" height="20" viewBox="0 0 20 20" fill="none" xmlns="http://www.w3.org/2000/svg">
<g clip-path="url(#clip0_2035_1181)">
<path d="M5.83337 5.83331H5.00004C4.55801 5.83331 4.13409 6.00891 3.82153 6.32147C3.50897 6.63403 3.33337 7.05795 3.33337 7.49998V15C3.33337 15.442 3.50897 15.8659 3.82153 16.1785C4.13409 16.4911 4.55801 16.6666 5.00004 16.6666H12.5C12.9421 16.6666 13.366 16.4911 13.6786 16.1785C13.9911 15.8659 14.1667 15.442 14.1667 15V14.1666" stroke="#606060" stroke-width="1.5" stroke-linecap="round" stroke-linejoin="round"/>
<path d="M16.9875 5.48753C17.3157 5.15932 17.5001 4.71418 17.5001 4.25003C17.5001 3.78588 17.3157 3.34073 16.9875 3.01253C16.6593 2.68432 16.2142 2.49994 15.75 2.49994C15.2858 2.49994 14.8407 2.68432 14.5125 3.01253L7.5 10V12.5H10L16.9875 5.48753Z" stroke="#606060" stroke-width="1.5" stroke-linecap="round" stroke-linejoin="round"/>
<path d="M13.3334 4.16669L15.8334 6.66669" stroke="#606060" stroke-width="1.5" stroke-linecap="round" stroke-linejoin="round"/>
</g>
<defs>
<clipPath id="clip0_2035_1181">
<rect width="20" height="20" fill="white"/>
</clipPath>
</defs>
</svg>
