<svg width="20" height="20" viewBox="0 0 20 20" fill="none" xmlns="http://www.w3.org/2000/svg">
<path d="M10.2951 5.64069C10.4577 5.80326 10.4577 6.06753 10.2951 6.2301C10.1326 6.39267 9.86828 6.39267 9.70571 6.2301C9.54314 6.06753 9.54314 5.80326 9.70571 5.64069C9.86828 5.47812 10.1317 5.47812 10.2951 5.64069" stroke="#606060" stroke-width="1.5" stroke-linecap="round" stroke-linejoin="round"/>
<path d="M13.5932 6.02082V6.02082C13.5932 6.99706 13.1596 7.92162 12.4102 8.54688L11.2322 9.52895C10.7628 9.92078 10.4118 10.4352 10.2184 11.0154L10 11.6673L9.78241 11.0146C9.58899 10.4352 9.23802 9.91995 8.76865 9.52812L7.59066 8.54604C6.84035 7.92078 6.40767 6.99623 6.40767 6.01999V6.01999V6.03833C6.40684 3.7974 8.26344 2.49686 10 2.49686C11.7366 2.49686 13.5932 3.7974 13.5932 6.03917" stroke="#606060" stroke-width="1.5" stroke-linecap="round" stroke-linejoin="round"/>
<path d="M4.99875 10C4.20425 10 3.5198 10.5611 3.3639 11.3406L2.53022 15.509C2.32347 16.5402 3.11296 17.5031 4.16507 17.5031H15.8358C16.8879 17.5031 17.6774 16.5402 17.4706 15.509L16.6369 11.3406C16.481 10.5611 15.7966 10 15.0021 10" stroke="#606060" stroke-width="1.5" stroke-linecap="round" stroke-linejoin="round"/>
</svg>
