<svg width="220" height="100" viewBox="0 0 220 100" fill="none" xmlns="http://www.w3.org/2000/svg">
<path d="M220 96.4498C208.113 96.4078 169.23 97.6348 169.426 95.7042C169.839 91.6439 174.316 75.4594 174.316 73.4586C174.316 70.9999 174.009 56.2501 173.242 52.5624C172.475 48.8749 170.635 47.6458 167.721 47.0313C164.808 46.4168 164.961 43.1901 165.268 42.4215C165.574 41.6537 171.709 47.0313 174.622 46.4168C177.536 45.8023 172.935 36.1225 172.629 36.5835C172.322 37.0439 194.712 36.2759 196.398 35.8149C198.085 35.3538 198.392 19.375 197.625 15.5332C196.859 11.692 197.472 35.3538 197.472 36.2759C197.472 37.198 206.979 29.5152 207.286 29.0548C207.593 28.5938 208.36 8.15858 207.9 7.083C207.44 6.00746 203.606 8.00507 203.146 8.31204C202.685 8.61962 204.372 31.8204 204.066 32.5882C203.759 33.357 202.379 33.9713 201.766 33.8173C201.153 33.6638 201.612 10.3097 201.153 9.54108C200.692 8.77308 179.376 9.54108 177.689 9.38762C176.003 9.23412 171.709 11.8463 172.169 12.153C172.629 12.4608 179.529 6.16096 179.529 6.16096L207.44 6.31446C207.44 6.31446 198.085 12.9985 197.395 12.9985C196.705 12.9985 171.938 12.6143 171.249 13.3829C170.559 14.1507 170.482 26.4427 170.712 28.6705C170.941 30.8984 170.788 19.6051 170.405 18.7605C170.022 17.9153 169.101 17.9153 167.568 19.4516C166.034 20.9883 167.338 23.3695 167.184 25.3671C167.031 27.3648 166.265 22.0638 165.728 21.2952C165.191 20.5272 164.271 21.9872 162.431 22.0638C160.59 22.1407 161.817 18.6064 160.437 17.6075C159.057 16.6094 164.655 19.6051 165.651 19.7586C166.648 19.9127 166.878 17.8385 166.494 16.8397C166.111 15.8408 162.354 14.5351 161.204 15.1497C160.054 15.7642 164.271 16.532 166.341 15.5332C168.412 14.5352 167.415 10.2329 166.494 7.62095C165.574 5.00879 163.197 4.39429 159.287 6.161C155.377 7.92771 158.137 12.9219 159.593 14.2276C161.051 15.5332 160.054 12.9985 159.824 12.0764C159.593 11.1544 157.83 10.8474 157.83 9.61862C157.83 8.38875 159.593 9.61861 160.054 9.77187C160.514 9.92533 160.667 7.15991 160.054 6.39195C159.44 5.62333 155.377 9.2342 154.533 9.08074C153.689 8.92666 152.233 6.69891 152.923 4.932C153.613 3.16529 155.99 0.323041 159.747 0.0154608C163.504 -0.292078 165.115 4.08679 164.961 4.39433C164.808 4.70129 163.658 5.46991 164.271 6.23792C164.884 7.00649 169.868 5.39308 169.331 4.24087C168.794 3.08866 163.504 5.62337 161.204 6.54545C158.904 7.46753 155.146 10.0789 155.146 10.0789C155.146 10.0789 155.146 10.0789 155.453 12.0765C155.76 14.0741 159.9 15.3798 159.9 16.7629C159.9 18.1454 156.22 19.5286 155.76 21.6797C155.299 23.8306 157.907 35.508 159.747 37.044C161.587 38.5806 169.868 35.354 171.862 34.4325C173.856 33.5104 172.322 31.5128 172.629 30.8985C172.935 30.2839 174.009 27.5183 174.776 27.2108C175.542 26.9038 175.235 28.9008 175.235 29.5153C175.235 30.1305 179.529 28.4398 179.683 29.8229C179.836 31.206 172.322 33.5104 172.322 33.5104L171.402 30.8985C171.402 30.8985 162.661 33.8174 162.968 32.4351C163.274 31.0517 160.207 18.9141 159.133 17.5309C158.061 16.1484 156.527 18.2996 155.146 21.0652C153.767 23.8306 156.527 41.8071 157.446 46.4169C158.367 51.0259 154.38 61.4745 152.386 65.0079C150.392 68.5422 138.431 69.9244 135.364 69.4643C132.297 69.0032 148.552 67.9277 149.473 67.3132C150.392 66.698 157.6 49.0291 157.6 49.0291C157.6 49.0291 159.44 50.1046 162.354 50.1046C165.268 50.1046 174.776 49.0291 174.622 48.568C174.469 48.107 174.622 48.568 174.316 49.7971C174.009 51.0259 175.695 70.0788 175.695 72.8442C175.695 75.6099 171.555 93.1251 170.635 93.8937C169.715 94.6619 170.022 93.8937 168.335 94.2008C166.648 94.5082 167.262 97.7523 167.415 98.9813C167.568 100.211 174.246 100.211 177.927 99.5962C179.548 99.3253 179.057 98.0789 177.282 97.1564C175.028 95.9845 171.095 95.1227 171.095 95.1227C171.095 95.1227 165.728 95.1227 166.648 94.6619C167.568 94.2008 168.795 76.3778 169.408 74.9953C170.022 73.6122 165.728 53.9456 166.494 53.4845C167.262 53.0235 155.299 70.6932 153 72.3831C150.699 74.0732 138.124 74.3807 134.29 74.0732C130.457 73.7656 127.849 75.6098 127.849 76.8388C127.849 78.0676 131.99 73.7656 131.99 73.7656L132.604 69.3099C132.604 69.3099 130.763 69.3099 129.077 69.7709C127.915 70.0884 126.412 73.5878 125.506 75.985C125.297 76.5401 124.915 78.4947 125.072 79.6711C125.178 80.4656 127.014 79.2008 127.305 78.4858C127.414 78.2159 2.24272 78.4597 0 78.2986" stroke="#03464D" stroke-width="1.5" stroke-miterlimit="10" stroke-linecap="round" stroke-linejoin="round"/>
</svg>
