<svg width="20" height="20" viewBox="0 0 20 20" fill="none" xmlns="http://www.w3.org/2000/svg">
<path fill-rule="evenodd" clip-rule="evenodd" d="M14.5833 17.5H5.41667C4.49583 17.5 3.75 16.7542 3.75 15.8333V4.16667C3.75 3.24583 4.49583 2.5 5.41667 2.5H14.5833C15.5042 2.5 16.25 3.24583 16.25 4.16667V15.8333C16.25 16.7542 15.5042 17.5 14.5833 17.5Z" stroke="#606060" stroke-width="1.5" stroke-linecap="round" stroke-linejoin="round"/>
<path d="M11.6667 6.24999H13.3333" stroke="#606060" stroke-width="1.5" stroke-linecap="round" stroke-linejoin="round"/>
<path d="M11.6667 8.74999H13.3333" stroke="#606060" stroke-width="1.5" stroke-linecap="round" stroke-linejoin="round"/>
<path d="M6.66667 12.5H13.3333" stroke="#606060" stroke-width="1.5" stroke-linecap="round" stroke-linejoin="round"/>
<path d="M6.66667 15H13.3333" stroke="#606060" stroke-width="1.5" stroke-linecap="round" stroke-linejoin="round"/>
<path d="M7.91667 5.62499V4.99999" stroke="#606060" stroke-width="1.5" stroke-linecap="round" stroke-linejoin="round"/>
<path d="M7.91667 9.37499V9.99999" stroke="#606060" stroke-width="1.5" stroke-linecap="round" stroke-linejoin="round"/>
<path d="M6.83167 8.92833C6.99333 9.19333 7.27 9.37667 7.60417 9.37667H7.91667H8.28917C8.77417 9.37667 9.16667 8.98333 9.16667 8.49917C9.16667 8.09667 8.8925 7.74583 8.5025 7.6475L7.33083 7.35417C6.94083 7.25583 6.66667 6.905 6.66667 6.5025C6.66667 6.01833 7.06 5.625 7.54417 5.625H7.91667H8.22917C8.5625 5.625 8.83833 5.8075 9 6.07167" stroke="#606060" stroke-width="1.5" stroke-linecap="round" stroke-linejoin="round"/>
</svg>
