<svg width="1099" height="197" viewBox="0 0 1099 197" fill="none" xmlns="http://www.w3.org/2000/svg">
<path d="M1030.23 9.12559L1077.92 109.352C1079.72 113.132 1083.53 115.541 1087.72 115.541C1093.71 115.541 1098.57 120.399 1098.57 126.391V180.872C1098.57 189.709 1091.4 196.872 1082.57 196.872H16C7.16349 196.872 0 189.709 0 180.872V105.451C0 96.6143 7.16344 89.4508 16 89.4508H68.7119C71.9045 89.4508 75.0242 88.4957 77.6696 86.7083L138.503 45.6044C141.149 43.817 144.268 42.8619 147.461 42.8619H238.038C241.391 42.8619 244.659 43.9152 247.381 45.873L345.231 116.257C347.953 118.215 351.221 119.268 354.574 119.268H391.008C394.263 119.268 397.44 120.26 400.116 122.113L440.35 149.967C443.025 151.819 446.202 152.812 449.457 152.812H497.175C500.465 152.812 503.674 151.798 506.366 149.909L604.315 81.1726C607.008 79.2832 610.217 78.2695 613.506 78.2695H659.514C662.673 78.2695 665.761 77.3345 668.39 75.5823L710.644 47.4126C713.272 45.6604 716.361 44.7254 719.519 44.7254H815.538C819.016 44.7254 822.4 45.859 825.176 47.9544L866.004 78.7676C868.78 80.8631 872.164 81.9966 875.642 81.9966H916.303C921.867 81.9966 927.031 79.1067 929.94 74.3649L970.89 7.63174C973.8 2.88993 978.964 0 984.527 0H1015.78C1021.96 0 1027.58 3.55127 1030.23 9.12559Z" fill="url(#paint0_linear_2035_1073)"/>
<defs>
<linearGradient id="paint0_linear_2035_1073" x1="549.284" y1="0" x2="549.284" y2="196.872" gradientUnits="userSpaceOnUse">
<stop stop-color="#CAEB66"/>
<stop offset="1" stop-color="white" stop-opacity="0"/>
</linearGradient>
</defs>
</svg>
